<svg width="150" height="49" viewBox="0 0 150 49" fill="none" xmlns="http://www.w3.org/2000/svg">
<g clip-path="url(#clip0_1_1613)">
<g clip-path="url(#clip1_1_1613)">
<g clip-path="url(#clip2_1_1613)">
<path d="M73.642 38.245C72.222 38.245 70.902 37.985 69.682 37.465C68.482 36.945 67.442 36.225 66.562 35.305C65.702 34.365 65.072 33.275 64.672 32.035L68.062 30.565C68.602 31.845 69.382 32.855 70.402 33.595C71.422 34.315 72.572 34.675 73.852 34.675C74.572 34.675 75.192 34.565 75.712 34.345C76.252 34.105 76.662 33.785 76.942 33.385C77.242 32.985 77.392 32.505 77.392 31.945C77.392 31.285 77.192 30.745 76.792 30.325C76.412 29.885 75.832 29.545 75.052 29.305L70.762 27.925C69.022 27.385 67.712 26.575 66.832 25.495C65.952 24.415 65.512 23.145 65.512 21.685C65.512 20.405 65.822 19.275 66.442 18.295C67.082 17.315 67.962 16.555 69.082 16.015C70.222 15.455 71.522 15.175 72.982 15.175C74.322 15.175 75.552 15.415 76.672 15.895C77.792 16.355 78.752 17.005 79.552 17.845C80.372 18.665 80.982 19.635 81.382 20.755L78.022 22.255C77.582 21.135 76.922 20.275 76.042 19.675C75.162 19.055 74.142 18.745 72.982 18.745C72.302 18.745 71.702 18.865 71.182 19.105C70.662 19.325 70.252 19.645 69.952 20.065C69.672 20.465 69.532 20.945 69.532 21.505C69.532 22.125 69.732 22.675 70.132 23.155C70.532 23.615 71.142 23.975 71.962 24.235L76.072 25.525C77.852 26.105 79.182 26.905 80.062 27.925C80.962 28.945 81.412 30.205 81.412 31.705C81.412 32.985 81.082 34.115 80.422 35.095C79.762 36.075 78.852 36.845 77.692 37.405C76.532 37.965 75.182 38.245 73.642 38.245ZM92.7358 38.245C91.1358 38.245 89.6758 37.875 88.3558 37.135C87.0558 36.395 86.0158 35.385 85.2358 34.105C84.4758 32.825 84.0958 31.365 84.0958 29.725C84.0958 28.085 84.4758 26.625 85.2358 25.345C86.0158 24.065 87.0558 23.055 88.3558 22.315C89.6558 21.575 91.1158 21.205 92.7358 21.205C94.3358 21.205 95.7858 21.575 97.0858 22.315C98.3858 23.055 99.4158 24.065 100.176 25.345C100.956 26.605 101.346 28.065 101.346 29.725C101.346 31.365 100.956 32.825 100.176 34.105C99.3958 35.385 98.3558 36.395 97.0558 37.135C95.7558 37.875 94.3158 38.245 92.7358 38.245ZM92.7358 34.645C93.6158 34.645 94.3858 34.435 95.0458 34.015C95.7258 33.595 96.2558 33.015 96.6358 32.275C97.0358 31.515 97.2358 30.665 97.2358 29.725C97.2358 28.765 97.0358 27.925 96.6358 27.205C96.2558 26.465 95.7258 25.885 95.0458 25.465C94.3858 25.025 93.6158 24.805 92.7358 24.805C91.8358 24.805 91.0458 25.025 90.3658 25.465C89.6858 25.885 89.1458 26.465 88.7458 27.205C88.3658 27.925 88.1758 28.765 88.1758 29.725C88.1758 30.665 88.3658 31.515 88.7458 32.275C89.1458 33.015 89.6858 33.595 90.3658 34.015C91.0458 34.435 91.8358 34.645 92.7358 34.645ZM109.276 38.245C108.136 38.245 107.146 38.055 106.306 37.675C105.466 37.295 104.816 36.755 104.356 36.055C103.896 35.335 103.666 34.505 103.666 33.565C103.666 32.665 103.866 31.865 104.266 31.165C104.666 30.445 105.286 29.845 106.126 29.365C106.966 28.885 108.026 28.545 109.306 28.345L114.646 27.475V30.475L110.056 31.255C109.276 31.395 108.696 31.645 108.316 32.005C107.936 32.365 107.746 32.835 107.746 33.415C107.746 33.975 107.956 34.425 108.376 34.765C108.816 35.085 109.356 35.245 109.996 35.245C110.816 35.245 111.536 35.075 112.156 34.735C112.796 34.375 113.286 33.885 113.626 33.265C113.986 32.645 114.166 31.965 114.166 31.225V27.025C114.166 26.325 113.886 25.745 113.326 25.285C112.786 24.805 112.066 24.565 111.166 24.565C110.326 24.565 109.576 24.795 108.916 25.255C108.276 25.695 107.806 26.285 107.506 27.025L104.296 25.465C104.616 24.605 105.116 23.865 105.796 23.245C106.496 22.605 107.316 22.105 108.256 21.745C109.196 21.385 110.216 21.205 111.316 21.205C112.656 21.205 113.836 21.455 114.856 21.955C115.876 22.435 116.666 23.115 117.226 23.995C117.806 24.855 118.096 25.865 118.096 27.025V37.885H114.376V35.095L115.216 35.035C114.796 35.735 114.296 36.325 113.716 36.805C113.136 37.265 112.476 37.625 111.736 37.885C110.996 38.125 110.176 38.245 109.276 38.245ZM121.728 37.885V21.565H125.418V25.195L125.118 24.655C125.498 23.435 126.088 22.585 126.888 22.105C127.708 21.625 128.688 21.385 129.828 21.385H130.788V24.865H129.378C128.258 24.865 127.358 25.215 126.678 25.915C125.998 26.595 125.658 27.555 125.658 28.795V37.885H121.728ZM140.689 38.245C139.009 38.245 137.539 37.865 136.279 37.105C135.019 36.345 134.039 35.315 133.339 34.015C132.639 32.715 132.289 31.275 132.289 29.695C132.289 28.055 132.639 26.605 133.339 25.345C134.059 24.065 135.029 23.055 136.249 22.315C137.489 21.575 138.869 21.205 140.389 21.205C141.669 21.205 142.789 21.415 143.749 21.835C144.729 22.255 145.559 22.835 146.239 23.575C146.919 24.315 147.439 25.165 147.799 26.125C148.159 27.065 148.339 28.085 148.339 29.185C148.339 29.465 148.319 29.755 148.279 30.055C148.259 30.355 148.209 30.615 148.129 30.835H135.529V27.835H145.909L144.049 29.245C144.229 28.325 144.179 27.505 143.899 26.785C143.639 26.065 143.199 25.495 142.579 25.075C141.979 24.655 141.249 24.445 140.389 24.445C139.569 24.445 138.839 24.655 138.199 25.075C137.559 25.475 137.069 26.075 136.729 26.875C136.409 27.655 136.289 28.605 136.369 29.725C136.289 30.725 136.419 31.615 136.759 32.395C137.119 33.155 137.639 33.745 138.319 34.165C139.019 34.585 139.819 34.795 140.719 34.795C141.619 34.795 142.379 34.605 142.999 34.225C143.639 33.845 144.139 33.335 144.499 32.695L147.679 34.255C147.359 35.035 146.859 35.725 146.179 36.325C145.499 36.925 144.689 37.395 143.749 37.735C142.829 38.075 141.809 38.245 140.689 38.245Z" fill="#0E0D1B"/>
<path d="M12.6178 32.4241L21.2193 41.0255C19.0861 43.3835 17.2481 46.0213 15.7663 48.886H5.86582C4.74968 48.886 3.71548 48.5471 2.85645 47.9642C5.13823 42.1455 8.47518 36.8942 12.6178 32.4241Z" fill="#0E0D1B"/>
<path d="M36.8699 30.6777C31.8035 32.4166 27.1999 35.2221 23.3506 38.8467L14.7549 30.2529C18.5242 26.6512 22.8497 23.6476 27.5714 21.3791L36.8699 30.6777Z" fill="#0E0D1B"/>
<path d="M48.5015 16.509V28.6609C45.6579 28.697 42.879 29.0532 40.2029 29.7008L30.5615 20.0594C36.1441 17.8157 42.2047 16.5663 48.5015 16.509Z" fill="#0E0D1B"/>
<path d="M22.5884 42.3957L29.0795 48.8868H17.9639C19.2629 46.5423 20.819 44.3671 22.5884 42.3957Z" fill="#0E0D1B"/>
<path d="M48.5015 30.5998V37.9994L41.8257 31.3236C43.9913 30.8761 46.2254 30.6285 48.5015 30.5998Z" fill="#0E0D1B"/>
<path d="M38.4052 32.2131L48.5018 42.3098V43.5211C48.5018 46.4848 46.1 48.8865 43.1364 48.8865H33.3902L24.7202 40.2165C28.5923 36.5843 33.2626 33.8245 38.4052 32.2131Z" fill="#0E0D1B"/>
<path d="M10.0531 12.3755L8.86677 13.8938L0.5 7.35693V12.6312L7.60905 15.9462L6.7947 17.6925L0.5 14.7572V18.7996L6.03092 19.9753L5.63032 21.8599L0.5 20.7696V24.3415L5.39959 24.256L5.43324 26.1826L0.5 26.2687V29.8774L5.74744 28.569L6.21357 30.4387L0.5 31.8632V36.034L7.05658 32.6933L7.93132 34.4101L0.5 38.1966V43.5216C0.5 43.602 0.505359 43.6808 0.508862 43.7603L4.19743 40.6652C11.9559 27.0047 25.7202 17.3984 41.5843 15.1005L48.5023 11.5756V6.25056C48.5023 6.16963 48.4997 6.0895 48.4962 6.00948L39.7424 13.3549L38.5038 11.8788L47.9761 3.93072C47.1971 2.30859 45.6264 1.14014 43.7651 0.922671L36.7578 10.2219L35.2189 9.06221L41.3809 0.884995H36.2417L33.1449 7.84052L31.3846 7.0569L34.1325 0.884995H30.1479L29.0889 6.33297L27.1975 5.96543L28.185 0.884995H25.4645V5.79859H23.5377V0.884995H19.9488L21.1461 6.07109L19.2686 6.50448L17.9712 0.884995H13.8669L16.9996 7.30801L15.2677 8.15266L11.7231 0.884995H6.30506L13.2376 9.44593L11.7401 10.6587L4.07458 1.19225C2.36888 1.79619 1.06064 3.2381 0.642694 5.02335L10.0531 12.3755Z" fill="#96D055"/>
<path d="M46.7773 14.6174C47.3504 14.5932 47.9252 14.5769 48.5022 14.5718V13.7385L46.7773 14.6174Z" fill="url(#paint0_radial_1_1613)"/>
<path d="M1.02832 45.8401C1.13074 46.0531 1.24536 46.2592 1.37383 46.4556C1.57018 45.9787 1.77517 45.5066 1.9851 45.0373L1.02832 45.8401Z" fill="url(#paint1_radial_1_1613)"/>
</g>
</g>
</g>
<defs>
<radialGradient id="paint0_radial_1_1613" cx="0" cy="0" r="1" gradientUnits="userSpaceOnUse" gradientTransform="translate(22.2154 21.0771) scale(42.5589 42.5589)">
<stop stop-color="#F9AD42"/>
<stop offset="0.0361" stop-color="#F7A23E"/>
<stop offset="0.1285" stop-color="#F58A36"/>
<stop offset="0.2228" stop-color="#F37731"/>
<stop offset="0.3187" stop-color="#F2682D"/>
<stop offset="0.4172" stop-color="#F15F2B"/>
<stop offset="0.522" stop-color="#F15B2B"/>
<stop offset="1" stop-color="#BD2430"/>
</radialGradient>
<radialGradient id="paint1_radial_1_1613" cx="0" cy="0" r="1" gradientUnits="userSpaceOnUse" gradientTransform="translate(22.2156 21.0772) scale(42.5587 42.5585)">
<stop stop-color="#F9AD42"/>
<stop offset="0.0361" stop-color="#F7A23E"/>
<stop offset="0.1285" stop-color="#F58A36"/>
<stop offset="0.2228" stop-color="#F37731"/>
<stop offset="0.3187" stop-color="#F2682D"/>
<stop offset="0.4172" stop-color="#F15F2B"/>
<stop offset="0.522" stop-color="#F15B2B"/>
<stop offset="1" stop-color="#BD2430"/>
</radialGradient>
<clipPath id="clip0_1_1613">
<rect width="149" height="48" fill="white" transform="translate(0.5 0.884995)"/>
</clipPath>
<clipPath id="clip1_1_1613">
<rect width="149" height="48" fill="white" transform="translate(0.5 0.884995)"/>
</clipPath>
<clipPath id="clip2_1_1613">
<rect width="149" height="48" fill="white" transform="translate(0.5 0.884995)"/>
</clipPath>
</defs>
</svg>
