<svg width="150" height="49" viewBox="0 0 150 49" fill="none" xmlns="http://www.w3.org/2000/svg">
<g clip-path="url(#clip0_1_1549)">
<g clip-path="url(#clip1_1_1549)">
<g clip-path="url(#clip2_1_1549)">
<path d="M73.642 38.0803C72.222 38.0803 70.902 37.8203 69.682 37.3003C68.482 36.7803 67.442 36.0603 66.562 35.1403C65.702 34.2003 65.072 33.1103 64.672 31.8703L68.062 30.4003C68.602 31.6803 69.382 32.6903 70.402 33.4303C71.422 34.1503 72.572 34.5103 73.852 34.5103C74.572 34.5103 75.192 34.4003 75.712 34.1803C76.252 33.9403 76.662 33.6203 76.942 33.2203C77.242 32.8203 77.392 32.3403 77.392 31.7803C77.392 31.1203 77.192 30.5803 76.792 30.1603C76.412 29.7203 75.832 29.3803 75.052 29.1403L70.762 27.7603C69.022 27.2203 67.712 26.4103 66.832 25.3303C65.952 24.2503 65.512 22.9803 65.512 21.5203C65.512 20.2403 65.822 19.1103 66.442 18.1303C67.082 17.1503 67.962 16.3903 69.082 15.8503C70.222 15.2903 71.522 15.0103 72.982 15.0103C74.322 15.0103 75.552 15.2503 76.672 15.7303C77.792 16.1903 78.752 16.8403 79.552 17.6803C80.372 18.5003 80.982 19.4703 81.382 20.5903L78.022 22.0903C77.582 20.9703 76.922 20.1103 76.042 19.5103C75.162 18.8903 74.142 18.5803 72.982 18.5803C72.302 18.5803 71.702 18.7003 71.182 18.9403C70.662 19.1603 70.252 19.4803 69.952 19.9003C69.672 20.3003 69.532 20.7803 69.532 21.3403C69.532 21.9603 69.732 22.5103 70.132 22.9903C70.532 23.4503 71.142 23.8103 71.962 24.0703L76.072 25.3603C77.852 25.9403 79.182 26.7403 80.062 27.7603C80.962 28.7803 81.412 30.0403 81.412 31.5403C81.412 32.8203 81.082 33.9503 80.422 34.9303C79.762 35.9103 78.852 36.6803 77.692 37.2403C76.532 37.8003 75.182 38.0803 73.642 38.0803ZM92.7358 38.0803C91.1358 38.0803 89.6758 37.7103 88.3558 36.9703C87.0558 36.2303 86.0158 35.2203 85.2358 33.9403C84.4758 32.6603 84.0958 31.2003 84.0958 29.5603C84.0958 27.9203 84.4758 26.4603 85.2358 25.1803C86.0158 23.9003 87.0558 22.8903 88.3558 22.1503C89.6558 21.4103 91.1158 21.0403 92.7358 21.0403C94.3358 21.0403 95.7858 21.4103 97.0858 22.1503C98.3858 22.8903 99.4158 23.9003 100.176 25.1803C100.956 26.4403 101.346 27.9003 101.346 29.5603C101.346 31.2003 100.956 32.6603 100.176 33.9403C99.3958 35.2203 98.3558 36.2303 97.0558 36.9703C95.7558 37.7103 94.3158 38.0803 92.7358 38.0803ZM92.7358 34.4803C93.6158 34.4803 94.3858 34.2703 95.0458 33.8503C95.7258 33.4303 96.2558 32.8503 96.6358 32.1103C97.0358 31.3503 97.2358 30.5003 97.2358 29.5603C97.2358 28.6003 97.0358 27.7603 96.6358 27.0403C96.2558 26.3003 95.7258 25.7203 95.0458 25.3003C94.3858 24.8603 93.6158 24.6403 92.7358 24.6403C91.8358 24.6403 91.0458 24.8603 90.3658 25.3003C89.6858 25.7203 89.1458 26.3003 88.7458 27.0403C88.3658 27.7603 88.1758 28.6003 88.1758 29.5603C88.1758 30.5003 88.3658 31.3503 88.7458 32.1103C89.1458 32.8503 89.6858 33.4303 90.3658 33.8503C91.0458 34.2703 91.8358 34.4803 92.7358 34.4803ZM109.276 38.0803C108.136 38.0803 107.146 37.8903 106.306 37.5103C105.466 37.1303 104.816 36.5903 104.356 35.8903C103.896 35.1703 103.666 34.3403 103.666 33.4003C103.666 32.5003 103.866 31.7003 104.266 31.0003C104.666 30.2803 105.286 29.6803 106.126 29.2003C106.966 28.7203 108.026 28.3803 109.306 28.1803L114.646 27.3103V30.3103L110.056 31.0903C109.276 31.2303 108.696 31.4803 108.316 31.8403C107.936 32.2003 107.746 32.6703 107.746 33.2503C107.746 33.8103 107.956 34.2603 108.376 34.6003C108.816 34.9203 109.356 35.0803 109.996 35.0803C110.816 35.0803 111.536 34.9103 112.156 34.5703C112.796 34.2103 113.286 33.7203 113.626 33.1003C113.986 32.4803 114.166 31.8003 114.166 31.0603V26.8603C114.166 26.1603 113.886 25.5803 113.326 25.1203C112.786 24.6403 112.066 24.4003 111.166 24.4003C110.326 24.4003 109.576 24.6303 108.916 25.0903C108.276 25.5303 107.806 26.1203 107.506 26.8603L104.296 25.3003C104.616 24.4403 105.116 23.7003 105.796 23.0803C106.496 22.4403 107.316 21.9403 108.256 21.5803C109.196 21.2203 110.216 21.0403 111.316 21.0403C112.656 21.0403 113.836 21.2903 114.856 21.7903C115.876 22.2703 116.666 22.9503 117.226 23.8303C117.806 24.6903 118.096 25.7003 118.096 26.8603V37.7203H114.376V34.9303L115.216 34.8703C114.796 35.5703 114.296 36.1603 113.716 36.6403C113.136 37.1003 112.476 37.4603 111.736 37.7203C110.996 37.9603 110.176 38.0803 109.276 38.0803ZM121.728 37.7203V21.4003H125.418V25.0303L125.118 24.4903C125.498 23.2703 126.088 22.4203 126.888 21.9403C127.708 21.4603 128.688 21.2203 129.828 21.2203H130.788V24.7003H129.378C128.258 24.7003 127.358 25.0503 126.678 25.7503C125.998 26.4303 125.658 27.3903 125.658 28.6303V37.7203H121.728ZM140.689 38.0803C139.009 38.0803 137.539 37.7003 136.279 36.9403C135.019 36.1803 134.039 35.1503 133.339 33.8503C132.639 32.5503 132.289 31.1103 132.289 29.5303C132.289 27.8903 132.639 26.4403 133.339 25.1803C134.059 23.9003 135.029 22.8903 136.249 22.1503C137.489 21.4103 138.869 21.0403 140.389 21.0403C141.669 21.0403 142.789 21.2503 143.749 21.6703C144.729 22.0903 145.559 22.6703 146.239 23.4103C146.919 24.1503 147.439 25.0003 147.799 25.9603C148.159 26.9003 148.339 27.9203 148.339 29.0203C148.339 29.3003 148.319 29.5903 148.279 29.8903C148.259 30.1903 148.209 30.4503 148.129 30.6703H135.529V27.6703H145.909L144.049 29.0803C144.229 28.1603 144.179 27.3403 143.899 26.6203C143.639 25.9003 143.199 25.3303 142.579 24.9103C141.979 24.4903 141.249 24.2803 140.389 24.2803C139.569 24.2803 138.839 24.4903 138.199 24.9103C137.559 25.3103 137.069 25.9103 136.729 26.7103C136.409 27.4903 136.289 28.4403 136.369 29.5603C136.289 30.5603 136.419 31.4503 136.759 32.2303C137.119 32.9903 137.639 33.5803 138.319 34.0003C139.019 34.4203 139.819 34.6303 140.719 34.6303C141.619 34.6303 142.379 34.4403 142.999 34.0603C143.639 33.6803 144.139 33.1703 144.499 32.5303L147.679 34.0903C147.359 34.8703 146.859 35.5603 146.179 36.1603C145.499 36.7603 144.689 37.2303 143.749 37.5703C142.829 37.9103 141.809 38.0803 140.689 38.0803Z" fill="white"/>
<path d="M12.6178 32.2612L21.2193 40.8627C19.0861 43.2206 17.2481 45.8585 15.7663 48.7232H5.86582C4.74968 48.7232 3.71548 48.3843 2.85645 47.8014C5.13823 41.9826 8.47518 36.7314 12.6178 32.2612Z" fill="white"/>
<path d="M36.8699 30.513C31.8035 32.2519 27.1999 35.0574 23.3506 38.682L14.7549 30.0882C18.5242 26.4865 22.8497 23.4829 27.5714 21.2144L36.8699 30.513Z" fill="white"/>
<path d="M48.5015 16.3452V28.4971C45.6579 28.5332 42.879 28.8893 40.2029 29.537L30.5615 19.8956C36.1441 17.6518 42.2047 16.4025 48.5015 16.3452Z" fill="white"/>
<path d="M22.5884 42.2319L29.0795 48.723H17.9639C19.2629 46.3784 20.819 44.2033 22.5884 42.2319Z" fill="white"/>
<path d="M48.502 30.4351V37.8347L41.8262 31.1589C43.9917 30.7114 46.2259 30.4638 48.502 30.4351Z" fill="white"/>
<path d="M38.4047 32.0483L48.5013 42.145V43.3563C48.5013 46.32 46.0995 48.7217 43.1359 48.7217H33.3897L24.7197 40.0517C28.5919 36.4195 33.2621 33.6597 38.4047 32.0483Z" fill="white"/>
<path d="M10.0531 12.2107L8.86677 13.729L0.5 7.19215V12.4664L7.60905 15.7814L6.7947 17.5277L0.5 14.5924V18.6348L6.03092 19.8105L5.63032 21.6951L0.5 20.6048V24.1767L5.39959 24.0912L5.43324 26.0178L0.5 26.1039V29.7126L5.74744 28.4042L6.21357 30.2739L0.5 31.6984V35.8692L7.05658 32.5285L7.93132 34.2453L0.5 38.0318V43.3568C0.5 43.4372 0.505359 43.516 0.508862 43.5955L4.19743 40.5004C11.9559 26.8399 25.7202 17.2336 41.5843 14.9357L48.5023 11.4108V6.08578C48.5023 6.00485 48.4997 5.92472 48.4962 5.8447L39.7424 13.1901L38.5038 11.714L47.9761 3.76594C47.1971 2.14381 45.6264 0.975356 43.7651 0.757891L36.7578 10.0571L35.2189 8.89744L41.3809 0.720215H36.2417L33.1449 7.67575L31.3846 6.89212L34.1325 0.720215H30.1479L29.0889 6.16819L27.1975 5.80065L28.185 0.720215H25.4645V5.63381H23.5377V0.720215H19.9488L21.1461 5.90631L19.2686 6.3397L17.9712 0.720215H13.8669L16.9996 7.14323L15.2677 7.98788L11.7231 0.720215H6.30506L13.2376 9.28115L11.7401 10.4939L4.07458 1.02747C2.36888 1.63141 1.06064 3.07332 0.642694 4.85857L10.0531 12.2107Z" fill="#96D055"/>
<path d="M46.7773 14.4526C47.3504 14.4284 47.9252 14.4121 48.5022 14.407V13.5737L46.7773 14.4526Z" fill="#96D055"/>
<path d="M1.02832 45.6754C1.13074 45.8884 1.24536 46.0945 1.37383 46.2909C1.57018 45.814 1.77517 45.3419 1.9851 44.8726L1.02832 45.6754Z" fill="#96D055"/>
</g>
</g>
</g>
<defs>
<clipPath id="clip0_1_1549">
<rect width="149" height="48" fill="white" transform="translate(0.5 0.720215)"/>
</clipPath>
<clipPath id="clip1_1_1549">
<rect width="149" height="48" fill="white" transform="translate(0.5 0.720215)"/>
</clipPath>
<clipPath id="clip2_1_1549">
<rect width="149" height="48" fill="white" transform="translate(0.5 0.720215)"/>
</clipPath>
</defs>
</svg>
