<svg width="18" height="19" viewBox="0 0 18 19" fill="none" xmlns="http://www.w3.org/2000/svg">
<path d="M9.22998 0.971191C14.0464 0.971191 17.9487 4.87354 17.9487 9.68994C17.9487 14.5063 14.0464 18.4087 9.22998 18.4087C4.41357 18.4087 0.51123 14.5063 0.51123 9.68994C0.51123 4.87354 4.41357 0.971191 9.22998 0.971191ZM9.22998 16.7212C13.0972 16.7212 16.2612 13.5923 16.2612 9.68994C16.2612 5.82275 13.0972 2.65869 9.22998 2.65869C5.32764 2.65869 2.19873 5.82275 2.19873 9.68994C2.19873 13.5923 5.32764 16.7212 9.22998 16.7212ZM11.3745 13.0649L8.38623 10.8853C8.28076 10.8149 8.24561 10.6743 8.24561 10.5688V4.76807C8.24561 4.55713 8.42139 4.34619 8.66748 4.34619H9.79248C10.0034 4.34619 10.2144 4.55713 10.2144 4.76807V9.76025L12.5347 11.4829C12.7456 11.6235 12.7808 11.8696 12.6401 12.0806L11.9722 12.9595C11.8315 13.1704 11.5854 13.2056 11.3745 13.0649Z" fill="#96D055"/>
</svg>
