<svg width="34" height="33" viewBox="0 0 34 33" fill="none" xmlns="http://www.w3.org/2000/svg">
<g clip-path="url(#clip0_23_344)">
<g clip-path="url(#clip1_23_344)">
<path fill-rule="evenodd" clip-rule="evenodd" d="M30.9677 4.61347L21.5165 14.0646L19.2257 11.7738C18.9544 11.5018 18.5134 11.5018 18.2421 11.7738L10.3861 19.6298L8.09528 17.339C7.82398 17.067 7.38293 17.067 7.11163 17.339L4.53147 19.9192L2.03894 19.9178C1.65494 19.9178 1.34259 20.2294 1.34259 20.6127C1.34259 20.9967 1.65424 21.3091 2.03754 21.3091L4.81877 21.3105C5.00381 21.3105 5.18049 21.2374 5.31127 21.1066L7.60346 18.8145L9.89424 21.1053C10.1655 21.3773 10.6066 21.3773 10.8779 21.1053L18.7339 13.2493L21.0247 15.54C21.296 15.812 21.7371 15.812 22.0084 15.54L31.9513 5.59712V9.48304C31.9513 9.86704 32.263 10.1787 32.647 10.1787C33.031 10.1787 33.3426 9.86704 33.3426 9.48304V3.91782C33.3426 3.53382 33.031 3.22217 32.647 3.22217H27.0817C26.6977 3.22217 26.3861 3.53382 26.3861 3.91782C26.3861 4.30182 26.6977 4.61347 27.0817 4.61347H30.9677Z" fill="white"/>
<path fill-rule="evenodd" clip-rule="evenodd" d="M8.29911 30.3395V24.7748C8.29911 23.6224 7.36485 22.688 6.21215 22.688H3.42954C2.27685 22.688 1.34259 23.6224 1.34259 24.7748V30.3395C1.34259 31.4918 2.27685 32.4262 3.42954 32.4262H6.21215C7.36485 32.4262 8.29911 31.4918 8.29911 30.3395ZM6.9078 24.7748V30.3395C6.9078 30.7236 6.59615 31.035 6.21215 31.035H3.42954C3.04554 31.035 2.73389 30.7236 2.73389 30.3395V24.7748C2.73389 24.3907 3.04554 24.0792 3.42954 24.0792H6.21215C6.59615 24.0792 6.9078 24.3907 6.9078 24.7748Z" fill="white"/>
<path fill-rule="evenodd" clip-rule="evenodd" d="M16.6468 30.3251V24.7612C16.6468 23.6085 15.7125 22.6743 14.5598 22.6743H11.7772C10.6245 22.6743 9.69025 23.6085 9.69025 24.7612V30.3251C9.69025 31.4778 10.6245 32.412 11.7772 32.412H14.5598C15.7125 32.412 16.6468 31.4778 16.6468 30.3251ZM15.2555 24.7612V30.3251C15.2555 30.7093 14.9438 31.0213 14.5598 31.0213H11.7772C11.3932 31.0213 11.0816 30.7093 11.0816 30.3251V24.7612C11.0816 24.377 11.3932 24.0659 11.7772 24.0659H14.5598C14.9438 24.0659 15.2555 24.377 15.2555 24.7612Z" fill="white"/>
<path fill-rule="evenodd" clip-rule="evenodd" d="M24.9949 19.2303C24.9949 18.6769 24.7751 18.1461 24.3835 17.7544C23.9925 17.3628 23.4617 17.1431 22.908 17.1431H20.1254C19.5716 17.1431 19.0409 17.3628 18.6499 17.7544C18.2582 18.1461 18.0384 18.6769 18.0384 19.2303V30.3616C18.0384 30.9149 18.2582 31.4457 18.6499 31.8374C19.0409 32.229 19.5716 32.4487 20.1254 32.4487H22.908C23.4617 32.4487 23.9925 32.229 24.3835 31.8374C24.7751 31.4457 24.9949 30.9149 24.9949 30.3616V19.2303ZM23.6036 19.2303V30.3616C23.6036 30.5458 23.5306 30.723 23.3998 30.8537C23.2697 30.9838 23.0923 31.0573 22.908 31.0573H20.1254C19.941 31.0573 19.7636 30.9838 19.6335 30.8537C19.5028 30.723 19.4297 30.5458 19.4297 30.3616V19.2303C19.4297 19.046 19.5028 18.8689 19.6335 18.7381C19.7636 18.608 19.941 18.5345 20.1254 18.5345H22.908C23.0923 18.5345 23.2697 18.608 23.3998 18.7381C23.5306 18.8689 23.6036 19.046 23.6036 19.2303Z" fill="white"/>
<path fill-rule="evenodd" clip-rule="evenodd" d="M33.3426 13.6027C33.3426 13.0489 33.1228 12.5188 32.7311 12.1272C32.3402 11.7357 31.8094 11.5161 31.2556 11.5161H28.473C27.9193 11.5161 27.3885 11.7357 26.9976 12.1272C26.6059 12.5188 26.3861 13.0489 26.3861 13.6027V30.2918C26.3861 30.8457 26.6059 31.3757 26.9976 31.7673C27.3885 32.1589 27.9193 32.3785 28.473 32.3785H31.2556C31.8094 32.3785 32.3402 32.1589 32.7311 31.7673C33.1228 31.3757 33.3426 30.8457 33.3426 30.2918V13.6027ZM31.9513 13.6027V30.2918C31.9513 30.4768 31.8782 30.6531 31.7475 30.784C31.6174 30.9138 31.44 30.9874 31.2556 30.9874H28.473C28.2887 30.9874 28.1113 30.9138 27.9812 30.784C27.8504 30.6531 27.7774 30.4768 27.7774 30.2918V13.6027C27.7774 13.4178 27.8504 13.2414 27.9812 13.1106C28.1113 12.9807 28.2887 12.9072 28.473 12.9072H31.2556C31.44 12.9072 31.6174 12.9807 31.7475 13.1106C31.8782 13.2414 31.9513 13.4178 31.9513 13.6027Z" fill="white"/>
<path fill-rule="evenodd" clip-rule="evenodd" d="M5.9339 11.0138C5.67163 11.363 5.5165 11.7964 5.5165 12.266C5.5165 13.418 6.45146 14.3529 7.60346 14.3529C8.75546 14.3529 9.69041 13.418 9.69041 12.266C9.69041 12.0218 9.64868 11.7881 9.57146 11.5703H11.2007C11.1235 11.7881 11.0817 12.0218 11.0817 12.266C11.0817 13.418 12.0167 14.3529 13.1687 14.3529C14.3207 14.3529 15.2557 13.418 15.2557 12.266C15.2557 11.7964 15.1005 11.363 14.8383 11.0138C15.1513 10.7237 15.3774 10.3363 15.4657 9.89246L16.3005 5.71855C16.423 5.10568 16.2644 4.46986 15.8678 3.98638C15.472 3.5029 14.8793 3.22255 14.2539 3.22255H5.36416L5.06363 2.02046C4.83128 1.09177 3.99649 0.439941 3.03858 0.439941H2.03824C1.65424 0.439941 1.34259 0.751593 1.34259 1.13559C1.34259 1.51959 1.65424 1.83124 2.03824 1.83124H3.03858C3.35788 1.83124 3.63615 2.04829 3.71406 2.35786L5.30641 9.89246C5.39476 10.3363 5.62085 10.7237 5.9339 11.0138ZM7.60346 11.5703C7.98746 11.5703 8.29911 11.882 8.29911 12.266C8.29911 12.65 7.98746 12.9616 7.60346 12.9616C7.21946 12.9616 6.9078 12.65 6.9078 12.266C6.9078 11.882 7.21946 11.5703 7.60346 11.5703ZM13.1687 11.5703C13.5527 11.5703 13.8644 11.882 13.8644 12.266C13.8644 12.65 13.5527 12.9616 13.1687 12.9616C12.7847 12.9616 12.4731 12.65 12.4731 12.266C12.4731 11.882 12.7847 11.5703 13.1687 11.5703ZM14.9363 5.44585L14.1016 9.61976C14.0362 9.94533 13.751 10.1791 13.4191 10.1791H7.35303C7.02121 10.1791 6.73598 9.94533 6.67058 9.61976L5.66954 4.61385H14.2539C14.4626 4.61385 14.6602 4.70707 14.7924 4.86846C14.9245 5.02985 14.9774 5.24133 14.9363 5.44585Z" fill="white"/>
</g>
</g>
<defs>
<clipPath id="clip0_23_344">
<rect width="33" height="32" fill="white" transform="translate(0.659973 0.439941)"/>
</clipPath>
<clipPath id="clip1_23_344">
<rect width="33" height="32" fill="white" transform="translate(0.659973 0.439941)"/>
</clipPath>
</defs>
</svg>
