<svg width="33" height="33" viewBox="0 0 33 33" fill="none" xmlns="http://www.w3.org/2000/svg">
<g clip-path="url(#clip0_23_121)">
<g clip-path="url(#clip1_23_121)">
<path d="M20.0666 20.5585C24.3569 20.5583 28.2959 17.7331 29.6847 13.6717C30.6518 10.8433 30.3114 7.67132 28.766 5.1131C28.6321 4.89131 28.3437 4.82013 28.1219 4.95411C27.9002 5.08814 27.829 5.37648 27.963 5.59821C28.346 6.23406 28.6497 6.90719 28.8741 7.61772L27.3847 6.994C26.8269 6.76052 26.1816 6.93315 25.8152 7.41407L24.9476 8.55248C24.8457 8.68627 24.6703 8.73962 24.5111 8.68514L23.8092 8.44515C23.4736 8.33044 23.1133 8.35314 22.7946 8.50939L21.7055 9.04353C20.7051 9.53421 20.805 11.1298 21.8581 11.4921L22.8136 11.8209C22.9119 11.8547 22.9912 11.9247 23.037 12.018L23.7158 13.4023C23.9371 13.8533 24.3865 14.1381 24.8887 14.1455L26.5224 14.1698C26.6668 14.1719 26.7976 14.2531 26.8636 14.3817L27.5707 15.7593C26.5498 17.1898 25.085 18.3239 23.4521 18.9719C23.4009 18.8962 23.1903 18.5664 23.2302 18.4495L23.6206 17.3076C23.7136 17.0357 23.6951 16.7438 23.5685 16.4856L22.3449 13.9904C22.0836 13.4577 21.4376 13.2368 20.9049 13.4981C20.5269 13.696 19.6237 14.2002 19.356 14.2318L15.5187 13.7187C15.3587 13.6974 15.1641 13.2966 15.3519 13.2044C15.8846 12.9432 16.1055 12.2971 15.8443 11.7643L14.8331 9.70246C14.7015 9.43426 15.1154 9.18101 15.3204 9.25175L16.3577 9.60977C16.6596 9.7141 16.9972 9.69315 17.2837 9.55254L18.5247 8.94396C19.1227 8.65074 19.3706 7.9257 19.0773 7.32769L18.6587 6.47412C18.3655 5.87617 17.6404 5.62842 17.0424 5.92152C16.9512 5.96642 16.8437 5.95635 16.7623 5.89537L15.3043 4.80562C14.9448 4.53704 14.4696 4.48951 14.0641 4.68153L12.1383 5.59377C13.2837 3.69079 15.1097 2.30882 17.1923 1.58559C16.7947 2.36311 17.3398 3.60478 18.1532 3.87924L19.0417 4.17909C19.1566 4.21793 19.2533 4.30274 19.3067 4.41164L19.9533 5.73025C20.1878 6.20829 20.6641 6.50777 21.1965 6.51183L21.8374 6.51677C22.8022 6.51677 23.5931 5.50664 23.102 4.50527C22.9907 4.27835 23.0848 4.00321 23.3117 3.89181L25.4294 2.85322C25.9124 3.2008 26.3681 3.59884 26.7886 4.04674C26.9658 4.23569 27.2627 4.24508 27.4516 4.06776C27.6405 3.89044 27.6499 3.59353 27.4726 3.40464C24.4601 0.195363 19.5219 -0.703433 15.5674 1.23614C10.5942 3.67484 8.4646 9.87691 10.9088 14.8611C12.6758 18.4634 16.3015 20.5585 20.0666 20.5585ZM27.6984 13.9533C27.4736 13.5154 27.0284 13.2389 26.5363 13.2316L24.9026 13.2074C24.7552 13.2052 24.6232 13.1215 24.5582 12.9891L23.8793 11.6048C23.7236 11.2872 23.4535 11.0488 23.1189 10.9337L22.1634 10.605C21.8543 10.4985 21.8246 10.03 22.1186 9.88585L23.2077 9.3517C23.3013 9.30586 23.4071 9.2991 23.5057 9.33281L24.2076 9.57281C24.7495 9.75801 25.3467 9.57656 25.6938 9.12103L26.5614 7.98262C26.669 7.84145 26.8584 7.7906 27.0223 7.85928L29.1537 8.75182C29.5265 10.8221 29.1605 12.9913 28.151 14.835L27.6984 13.9533ZM24.499 2.26453L22.8985 3.04943C22.2071 3.38856 21.9205 4.22687 22.2596 4.91833C22.3978 5.20016 22.1478 5.57851 21.8446 5.57851L21.2036 5.57357C21.029 5.57225 20.8726 5.47393 20.7957 5.317L20.1489 3.99839C19.9862 3.66652 19.692 3.40839 19.3417 3.29011L18.4532 2.9902C18.1624 2.89206 17.886 2.28955 18.0275 2.0126L18.4042 1.27586C20.4957 0.890382 22.6453 1.24139 24.499 2.26453ZM11.4656 6.95047L14.4657 5.52928C14.5562 5.48644 14.6623 5.49707 14.7425 5.55706L16.2005 6.64681C16.5655 6.91945 17.0462 6.96436 17.4554 6.76383C17.5888 6.69841 17.7508 6.75357 17.8162 6.88717L18.2349 7.74075C18.2933 7.89505 18.2523 8.01533 18.1115 8.10158L16.8705 8.71016C16.8066 8.7415 16.7313 8.74625 16.6638 8.72286L15.6265 8.36484C14.6242 8.01833 13.4946 9.10402 13.9906 10.1155L15.0018 12.1773C15.0353 12.2457 15.007 12.3285 14.9388 12.362C14.3769 12.7061 14.2128 13.186 14.4463 13.8021L14.5707 14.0557C14.7294 14.3791 15.0372 14.6008 15.3942 14.6485L19.2314 15.1616C19.4431 15.19 19.6564 15.1553 19.848 15.0612L21.3179 14.3404C21.3968 14.3105 21.4583 14.3315 21.5024 14.4036L22.7261 16.8987C22.8516 17.1544 22.4476 17.8909 22.3424 18.1458C22.2204 18.5025 22.3538 18.9587 22.5533 19.276C21.7313 19.5076 20.8946 19.6203 20.065 19.6203C16.6472 19.62 13.3552 17.718 11.7511 14.4479C10.664 12.2311 10.6288 9.04647 11.4656 6.95047Z" fill="white"/>
<path d="M31.6598 21.0742C30.8546 20.0915 29.3622 19.9511 28.3878 20.7666L23.9177 24.5056C23.6895 23.4661 22.7612 22.6856 21.6542 22.6856H16.8769C16.1813 22.6856 15.5071 22.4643 14.9784 22.0625C12.7995 20.4069 9.60753 20.6845 7.74138 22.6856H5.70161V21.8175C5.70161 21.5583 5.49158 21.3484 5.23251 21.3484H0.629073C0.370005 21.3484 0.159973 21.5583 0.159973 21.8175V31.7518C0.159973 32.0109 0.370005 32.2209 0.629073 32.2209H5.23251C5.49158 32.2209 5.70161 32.0109 5.70161 31.7518V30.8949H7.8818L11.3295 31.9314C11.9676 32.1235 12.6297 32.2209 13.2973 32.2209H20.9624C21.8429 32.2209 22.6925 31.9015 23.3543 31.3216L26.1314 28.8891C26.3263 28.7184 26.3459 28.422 26.1752 28.2271C26.0045 28.0322 25.7081 28.0125 25.5133 28.1834L22.7361 30.6159C22.2454 31.0459 21.6155 31.2827 20.9625 31.2827H13.2973C12.7214 31.2827 12.1503 31.1987 11.5997 31.033L8.08589 29.9765C8.08589 29.9765 6.41289 29.9567 5.70161 29.9567V27.7719C5.70161 27.5128 5.49158 27.3028 5.23251 27.3028C4.97344 27.3028 4.76341 27.5128 4.76341 27.7719V31.2827H1.09817V22.2866H4.76341V25.7273C4.76341 25.9864 4.97344 26.1964 5.23251 26.1964C5.49158 26.1964 5.70161 25.9864 5.70161 25.7273V23.6238H7.95079C8.08739 23.6238 8.21718 23.5643 8.30631 23.4608C9.80843 21.7152 12.5731 21.4133 14.4107 22.8095C15.1016 23.3347 15.9774 23.6239 16.8769 23.6239H21.6542C23.467 23.6239 23.4573 26.3814 21.6544 26.3814H15.6167C15.3577 26.3814 15.1476 26.5914 15.1476 26.8505C15.1476 27.1097 15.3577 27.3196 15.6167 27.3196H21.6544C22.6079 27.3196 23.4983 26.6902 23.8282 25.8036L28.9898 21.4861C29.6889 21.0061 30.3371 21.0671 30.9344 21.6692C31.3841 22.217 31.3107 23.1069 30.7771 23.5737L27.0512 26.8367C26.8563 27.0074 26.8367 27.3038 27.0074 27.4987C27.222 27.6963 27.4426 27.7109 27.6693 27.5426L31.395 24.2796C32.3088 23.4803 32.4299 22.0122 31.6598 21.0742Z" fill="white"/>
</g>
</g>
<defs>
<clipPath id="clip0_23_121">
<rect width="32" height="32" fill="white" transform="translate(0.159973 0.219971)"/>
</clipPath>
<clipPath id="clip1_23_121">
<rect width="32" height="32" fill="white" transform="translate(0.159973 0.219971)"/>
</clipPath>
</defs>
</svg>
