<svg width="46" height="50" viewBox="0 0 46 50" fill="none" xmlns="http://www.w3.org/2000/svg">
<g clip-path="url(#clip0_1_1283)">
<g clip-path="url(#clip1_1_1283)">
<mask id="mask0_1_1283" style="mask-type:luminance" maskUnits="userSpaceOnUse" x="0" y="0" width="46" height="49">
<path d="M45.8566 0.867676H0.494995V48.8677H45.8566V0.867676Z" fill="white"/>
</mask>
<g mask="url(#mask0_1_1283)">
<mask id="mask1_1_1283" style="mask-type:luminance" maskUnits="userSpaceOnUse" x="0" y="0" width="49" height="49">
<path d="M48.2333 0.881348H0.233276V48.8813H48.2333V0.881348Z" fill="white"/>
</mask>
<g mask="url(#mask1_1_1283)">
<path d="M1.73328 42.1343H2.87328C2.95128 42.3563 3.04203 42.573 3.14253 42.7853L2.33628 43.5915C2.19528 43.7325 2.11653 43.923 2.11653 44.1218C2.11653 44.3205 2.19528 44.5118 2.33628 44.652L4.46178 46.7775C4.74303 47.0588 5.24102 47.0588 5.52227 46.7775L6.32928 45.9705C6.54153 46.0718 6.75828 46.161 6.97953 46.239V47.3813C6.97953 47.7953 7.31553 48.1313 7.72953 48.1313H10.7355C11.1495 48.1313 11.4855 47.7953 11.4855 47.3813V46.2375C11.706 46.1595 11.9228 46.0695 12.1335 45.969L12.9428 46.7783C13.0838 46.9193 13.2743 46.998 13.473 46.998C13.6718 46.998 13.863 46.9193 14.0033 46.7783L16.1288 44.6528C16.2698 44.5118 16.3485 44.3213 16.3485 44.1225C16.3485 43.9238 16.2698 43.7325 16.1288 43.5923L15.3188 42.7823C15.4193 42.5715 15.5085 42.3555 15.5865 42.135H16.7333C17.1473 42.135 17.4833 41.799 17.4833 41.385V38.379C17.4833 37.965 17.1473 37.629 16.7333 37.629H15.5873C15.5093 37.4085 15.42 37.1925 15.3195 36.9818L16.1295 36.1718C16.2705 36.0308 16.3493 35.8403 16.3493 35.6415C16.3493 35.4428 16.2705 35.2515 16.1295 35.1113L14.004 32.9858C13.7228 32.7045 13.2248 32.7045 12.9435 32.9858L12.1343 33.795C11.9235 33.6945 11.7068 33.6053 11.4863 33.5265V32.3813C11.4863 31.9673 11.1503 31.6313 10.7363 31.6313H7.73028C7.31628 31.6313 6.98028 31.9673 6.98028 32.3813V33.5228C6.75903 33.6008 6.54228 33.6908 6.33003 33.7913L5.52303 32.9843C5.38203 32.8433 5.19152 32.7645 4.99277 32.7645C4.79402 32.7645 4.60278 32.8433 4.46253 32.9843L2.33703 35.1098C2.19603 35.2508 2.11728 35.4413 2.11728 35.64C2.11728 35.8388 2.19603 36.03 2.33703 36.1703L3.14328 36.9765C3.04203 37.1895 2.95203 37.4063 2.87328 37.6283H1.73328C1.31928 37.6283 0.983276 37.9643 0.983276 38.3783V41.3843C0.983276 41.7983 1.31928 42.1343 1.73328 42.1343ZM2.48328 39.1283H3.42753C3.76953 39.1283 4.06803 38.8965 4.15353 38.5658C4.27578 38.0925 4.46328 37.6395 4.71078 37.2203C4.88478 36.9255 4.83678 36.5505 4.59528 36.309L3.92703 35.6408L4.99203 34.5758L5.66028 35.2448C5.90103 35.4863 6.27528 35.5343 6.57153 35.3603C6.99078 35.1135 7.44303 34.926 7.91628 34.8045C8.24778 34.719 8.47878 34.4205 8.47878 34.0785V33.1313H9.98478V34.0793C9.98478 34.4213 10.2158 34.7198 10.5465 34.8053C11.0205 34.9283 11.472 35.1158 11.8905 35.3625C12.1845 35.5358 12.561 35.4885 12.8018 35.247L13.4723 34.5758L14.5373 35.6408L13.8653 36.3128C13.6238 36.5543 13.5758 36.9293 13.7498 37.224C13.9958 37.6418 14.1825 38.0933 14.3048 38.5673C14.3903 38.898 14.6888 39.1298 15.0308 39.1298H15.9833V40.6358H15.033C14.691 40.6358 14.3925 40.8668 14.307 41.1983C14.1848 41.6715 13.9973 42.1238 13.752 42.5415C13.578 42.8363 13.626 43.2113 13.8675 43.4528L14.5388 44.124L13.4738 45.189L12.8033 44.5163C12.5625 44.2748 12.1868 44.2268 11.892 44.4008C11.4743 44.6475 11.022 44.835 10.548 44.958C10.2173 45.0435 9.98627 45.342 9.98627 45.684V46.6313H8.48028V45.6848C8.48028 45.3428 8.24853 45.0443 7.91778 44.9588C7.44453 44.8365 6.99153 44.6498 6.57303 44.403C6.27678 44.2298 5.90253 44.2778 5.66178 44.5185L4.99353 45.1868L3.92853 44.1218L4.59603 43.4543C4.83828 43.2128 4.88553 42.8378 4.71153 42.543C4.46403 42.123 4.27653 41.6708 4.15428 41.1975C4.06878 40.8668 3.77028 40.635 3.42828 40.635H2.48328V39.1283Z" fill="#96D055"/>
<path d="M9.23328 43.6313C11.301 43.6313 12.9833 41.949 12.9833 39.8813C12.9833 37.8135 11.301 36.1313 9.23328 36.1313C7.16553 36.1313 5.48328 37.8135 5.48328 39.8813C5.48328 41.949 7.16553 43.6313 9.23328 43.6313ZM9.23328 37.6313C10.4738 37.6313 11.4833 38.6408 11.4833 39.8813C11.4833 41.1218 10.4738 42.1313 9.23328 42.1313C7.99278 42.1313 6.98328 41.1218 6.98328 39.8813C6.98328 38.6408 7.99278 37.6313 9.23328 37.6313Z" fill="#96D055"/>
<path d="M47.4443 5.58085C47.3551 5.3146 47.1241 5.1196 46.8466 5.0776L44.1331 4.6636L42.9128 2.06335C42.7891 1.79935 42.5243 1.63135 42.2333 1.63135C41.9423 1.63135 41.6776 1.79935 41.5546 2.0626L40.3343 4.66285L37.6208 5.07685C37.3426 5.1196 37.1123 5.31385 37.0231 5.5801C36.9338 5.84635 37.0013 6.1411 37.1971 6.3421L39.1823 8.37685L38.7128 11.2599C38.6663 11.5434 38.7863 11.8284 39.0211 11.9941C39.2558 12.1591 39.5641 12.1756 39.8161 12.0376L42.2333 10.7011L44.6513 12.0376C44.7646 12.0999 44.8898 12.1314 45.0143 12.1314C45.1658 12.1314 45.3173 12.0849 45.4463 11.9941C45.6811 11.8291 45.8011 11.5434 45.7546 11.2599L45.2851 8.37685L47.2703 6.3421C47.4668 6.14185 47.5336 5.84785 47.4443 5.58085ZM43.9463 7.60135C43.7798 7.7716 43.7048 8.01085 43.7431 8.2456L44.0251 9.97735L42.5956 9.1876C42.4831 9.12535 42.3578 9.09385 42.2326 9.09385C42.1073 9.09385 41.9828 9.12535 41.8696 9.1876L40.4401 9.97735L40.7221 8.2456C40.7603 8.01085 40.6853 7.7716 40.5188 7.60135L39.2881 6.33985L40.9546 6.0856C41.2021 6.04735 41.4143 5.8891 41.5201 5.6626L42.2333 4.14685L42.9451 5.6626C43.0516 5.8891 43.2638 6.04735 43.5106 6.0856L45.1771 6.33985L43.9463 7.60135Z" fill="#96D055"/>
<path d="M35.7661 10.6887C35.3581 10.6264 34.9366 10.7344 34.6111 10.9894L28.7266 15.5929C29.0498 14.9712 29.1991 14.2729 29.1391 13.5574C29.0551 12.5592 28.5871 11.6539 27.8213 11.0074C27.0556 10.3609 26.0858 10.0527 25.0868 10.1359C24.0886 10.2207 23.1833 10.6887 22.5368 11.4537C21.8911 12.2194 21.5813 13.1899 21.6653 14.1882C21.7373 15.0342 22.0973 15.8029 22.6673 16.4142C21.7943 16.6302 21.0241 17.1469 20.5073 17.8857L14.5981 25.9512C14.2606 26.4334 14.2336 27.0499 14.5276 27.5599C14.8208 28.0692 15.3638 28.3527 15.9541 28.3062L17.7511 28.1539C18.1876 28.1172 18.5851 27.8922 18.8303 27.5509L22.3981 22.8574L22.6681 26.0599L20.8958 38.2159C20.2268 38.3532 19.5548 38.4762 18.8791 38.5707L19.0868 40.0557C21.4403 39.7264 23.7631 39.1482 25.9898 38.3359C30.3098 36.7609 33.7628 34.4937 36.4253 32.2174L36.5933 32.1672L36.5701 32.0892C39.1388 29.8677 40.9598 27.6499 42.0931 26.0682C42.2378 25.8657 42.2731 25.6054 42.1868 25.3729C42.1013 25.1397 41.9056 24.9642 41.6648 24.9042L40.5083 24.6147L44.7196 22.2754L45.7141 26.7514L44.7211 26.4207C44.3978 26.3127 44.0446 26.4364 43.8578 26.7192L43.7333 26.9067C34.3051 41.2609 23.8246 44.7409 16.6921 45.1324L16.7738 46.6302C24.2011 46.2222 35.0693 42.6544 44.7916 28.0249L46.4948 28.5927C46.7506 28.6789 47.0333 28.6189 47.2343 28.4382C47.4353 28.2574 47.5223 27.9822 47.4638 27.7189L45.9638 20.9689C45.9128 20.7379 45.7553 20.5444 45.5393 20.4477C45.3233 20.3517 45.0751 20.3607 44.8673 20.4762L38.1173 24.2262C37.8481 24.3754 37.6981 24.6747 37.7386 24.9799C37.7783 25.2852 38.0018 25.5349 38.3003 25.6092L40.2091 26.0862C39.2198 27.3657 37.8541 28.9234 36.0968 30.5052L34.7596 26.0194C34.6351 25.6339 34.3553 25.3107 34.0081 25.1404L30.9248 23.5347L30.4426 19.8687L37.3096 14.6367C37.9448 14.1537 38.0903 13.2582 37.6403 12.5989L36.7733 11.3254C36.5423 10.9849 36.1748 10.7524 35.7661 10.6887ZM25.2128 11.6314C25.2773 11.6262 25.3418 11.6232 25.4063 11.6232C25.9366 11.6232 26.4443 11.8084 26.8538 12.1542C27.3128 12.5419 27.5933 13.0849 27.6443 13.6842C27.6946 14.2834 27.5093 14.8662 27.1216 15.3252C26.7338 15.7842 26.1908 16.0654 25.5916 16.1157C24.9916 16.1674 24.4096 15.9807 23.9506 15.5929C23.4916 15.2052 23.2103 14.6622 23.1601 14.0629C23.0558 12.8262 23.9768 11.7357 25.2128 11.6314ZM26.2321 36.6319L27.7928 27.6252L30.5498 28.9632L32.1796 33.5382C30.4418 34.6872 28.4626 35.7529 26.2321 36.6319ZM29.1893 18.9394C28.9756 19.1022 28.8653 19.3669 28.8998 19.6339L29.4893 24.1182C29.5216 24.3604 29.6693 24.5727 29.8868 24.6852L33.3278 26.4642L34.8518 31.5769C34.4086 31.9384 33.9413 32.2969 33.4553 32.6524L31.9538 28.4374C31.8158 28.0879 31.5548 27.8052 31.2188 27.6409L27.5536 25.8424C27.3421 25.7389 27.0938 25.7412 26.8823 25.8477C26.6716 25.9549 26.5238 26.1552 26.4841 26.3877L24.6076 37.2192C23.9011 37.4539 23.1871 37.6699 22.4648 37.8559L24.1658 26.1927C24.1741 26.1357 24.1756 26.0787 24.1711 26.0209L23.7293 20.7897C23.7031 20.4799 23.4893 20.2189 23.1916 20.1327C22.8931 20.0449 22.5728 20.1522 22.3853 20.3989L17.6258 26.6607L15.8191 26.8257L21.7283 18.7602C22.1123 18.2119 22.7153 17.8647 23.3828 17.8077L25.7176 17.6104H25.7191L28.7086 17.3577C28.8541 17.3449 28.9928 17.2909 29.1076 17.2009L35.5366 12.1714L36.4043 13.4449L29.1893 18.9394Z" fill="#96D055"/>
<path d="M3.23328 2.38135H4.73328V3.88135H3.23328V2.38135Z" fill="#96D055"/>
<path d="M4.73328 3.88135H6.23328V5.38135H4.73328V3.88135Z" fill="#96D055"/>
<path d="M1.73328 3.88135H3.23328V5.38135H1.73328V3.88135Z" fill="#96D055"/>
<path d="M3.23328 5.38135H4.73328V6.88135H3.23328V5.38135Z" fill="#96D055"/>
<path d="M9.23328 4.63135H10.7333V6.13135H9.23328V4.63135Z" fill="#96D055"/>
<path d="M10.7333 6.13135H12.2333V7.63135H10.7333V6.13135Z" fill="#96D055"/>
<path d="M7.73328 6.13135H9.23328V7.63135H7.73328V6.13135Z" fill="#96D055"/>
<path d="M9.23328 7.63135H10.7333V9.13135H9.23328V7.63135Z" fill="#96D055"/>
<path d="M43.7333 42.8813H45.2333V44.3813H43.7333V42.8813Z" fill="#96D055"/>
<path d="M45.2333 44.3813H46.7333V45.8813H45.2333V44.3813Z" fill="#96D055"/>
<path d="M42.2333 44.3813H43.7333V45.8813H42.2333V44.3813Z" fill="#96D055"/>
<path d="M43.7333 45.8813H45.2333V47.3813H43.7333V45.8813Z" fill="#96D055"/>
</g>
</g>
</g>
</g>
<defs>
<clipPath id="clip0_1_1283">
<rect width="46" height="49" fill="white" transform="translate(-0.00500488 0.560059)"/>
</clipPath>
<clipPath id="clip1_1_1283">
<rect width="46" height="49" fill="white" transform="translate(-0.00500488 0.560059)"/>
</clipPath>
</defs>
</svg>
