<svg width="46" height="50" viewBox="0 0 46 50" fill="none" xmlns="http://www.w3.org/2000/svg">
<g clip-path="url(#clip0_1_1320)">
<mask id="mask0_1_1320" style="mask-type:luminance" maskUnits="userSpaceOnUse" x="0" y="1" width="46" height="49">
<path d="M45.8566 1.28223H0.494995V49.2822H45.8566V1.28223Z" fill="white"/>
</mask>
<g mask="url(#mask0_1_1320)">
<path fill-rule="evenodd" clip-rule="evenodd" d="M27.9906 35.5734C28.1011 35.83 28.3451 36.0039 28.6237 36.0246C28.6424 36.026 28.661 36.0267 28.6797 36.0267C28.9377 36.0267 29.1793 35.8936 29.3168 35.6721L31.1339 32.7438L34.5101 33.4352C34.7841 33.4911 35.066 33.3905 35.2423 33.1738C35.4187 32.9572 35.4599 32.6604 35.3495 32.4038L32.8422 26.5823C32.9188 26.5497 32.9973 26.5163 33.08 26.4809C34.373 25.9272 35.1295 24.6168 34.9626 23.2202C34.9316 22.9608 34.9026 22.73 34.8766 22.5228C34.7725 21.6917 34.7201 21.2745 34.7763 20.9558C34.8326 20.637 35.0244 20.2629 35.4066 19.5176C35.5019 19.3317 35.6081 19.1247 35.7259 18.8915C36.3605 17.6362 36.0977 16.146 35.0721 15.1836C34.8817 15.0048 34.7111 14.8467 34.5581 14.7045C33.9439 14.1349 33.6357 13.849 33.4739 13.5687C33.312 13.2883 33.2186 12.8785 33.0323 12.0619C32.9858 11.8583 32.934 11.6314 32.8744 11.377C32.5536 10.0075 31.3945 9.0349 29.9901 8.95681C29.7293 8.94228 29.497 8.93075 29.2884 8.92034C28.4517 8.87871 28.0318 8.85781 27.7277 8.74709C27.4236 8.63637 27.0885 8.3825 26.4208 7.87662C26.2544 7.75043 26.0689 7.61 25.8598 7.45343C24.7337 6.61062 23.2208 6.61053 22.0947 7.45343C21.8856 7.61 21.7001 7.75043 21.5337 7.87662C20.866 8.3825 20.5309 8.63637 20.2268 8.74709C19.9227 8.85781 19.5027 8.87871 18.6661 8.92034C18.4574 8.93075 18.2252 8.94228 17.9644 8.95681C16.56 9.0349 15.4008 10.0076 15.0801 11.377C15.0205 11.6314 14.9687 11.8582 14.9222 12.0619C14.7359 12.8785 14.6425 13.2884 14.4806 13.5687C14.3187 13.849 14.0105 14.1349 13.3964 14.7045C13.2433 14.8467 13.0728 15.0048 12.8824 15.1836C11.8569 16.1461 11.594 17.6363 12.2285 18.8916C12.3463 19.1247 12.4525 19.3316 12.5477 19.5174C12.9299 20.2628 13.1218 20.6369 13.1781 20.9557C13.2343 21.2743 13.1819 21.6915 13.0778 22.5225C13.0518 22.7298 13.0228 22.9607 12.9918 23.2202C12.8249 24.6168 13.5814 25.9272 14.8744 26.4809C15.1146 26.5838 15.3289 26.6742 15.5214 26.7552C15.5799 26.7799 15.6354 26.8033 15.6896 26.8262L12.6139 33.4322C12.496 33.6855 12.5287 33.9833 12.6986 34.2051C12.8685 34.4268 13.1476 34.536 13.423 34.4876L16.8179 33.8944L18.5494 36.8741C18.6841 37.1057 18.9314 37.2472 19.1978 37.2472C19.209 37.2472 19.2205 37.2469 19.2318 37.2464C19.511 37.2338 19.7599 37.067 19.8778 36.8138L22.9387 30.2392C23.4297 30.0916 23.7274 30.0173 23.9774 30.0173C24.3011 30.0173 24.7029 30.1412 25.5033 30.3882C25.5959 30.4168 25.694 30.4471 25.7968 30.4786L27.9906 35.5734ZM30.9227 31.1694C30.615 31.1065 30.3006 31.2418 30.1349 31.5087L28.7998 33.6602L27.5252 30.7006C28.4001 30.5792 29.2008 30.089 29.7127 29.3062C29.8557 29.0875 29.9818 28.8921 30.0952 28.7166C30.5496 28.0129 30.7776 27.6597 31.0256 27.4516C31.1368 27.3582 31.2766 27.2739 31.4662 27.1798L33.4032 31.6773L30.9227 31.1694ZM19.1238 34.878L17.8517 32.6888C17.6938 32.4172 17.3835 32.2729 17.0742 32.3268L14.5798 32.7626L17.0153 27.5317C17.2329 27.7479 17.4577 28.0957 17.8587 28.7167C17.972 28.8922 18.0982 29.0876 18.2412 29.3062C18.874 30.274 19.9477 30.7953 21.0577 30.7242L19.1238 34.878ZM23.9769 28.5165C23.4665 28.5165 22.9559 28.6627 22.0087 28.955C21.8115 29.0158 21.5922 29.0835 21.3452 29.1582C20.6311 29.3738 19.9051 29.11 19.4965 28.4852C19.3552 28.2693 19.2306 28.0763 19.1187 27.903C18.0432 26.2375 17.9305 26.143 16.1034 25.373C15.9133 25.2929 15.7017 25.2037 15.4645 25.1021C14.7783 24.8082 14.3922 24.1393 14.4807 23.3982C14.5114 23.1419 14.54 22.9138 14.5657 22.7092C14.8123 20.7421 14.7867 20.5972 13.882 18.8328C13.7878 18.6492 13.6831 18.445 13.5668 18.2148C13.23 17.5486 13.3642 16.7881 13.9085 16.2773C14.0967 16.1007 14.265 15.9446 14.4162 15.8042C15.8698 14.4558 15.9433 14.3284 16.3843 12.3956C16.4302 12.1944 16.4813 11.9704 16.5402 11.7191C16.7103 10.9923 17.302 10.4959 18.0473 10.4545C18.3049 10.4401 18.5343 10.4287 18.7404 10.4185C20.7206 10.3198 20.8589 10.2695 22.4392 9.07222C22.6036 8.94762 22.7867 8.80887 22.9932 8.65428C23.5909 8.207 24.363 8.207 24.9607 8.65428C25.1672 8.80887 25.3503 8.94762 25.5147 9.07222C27.095 10.2695 27.2334 10.3198 29.2136 10.4185C29.4195 10.4287 29.649 10.4401 29.9067 10.4545C30.652 10.4959 31.2435 10.9923 31.4138 11.7191C31.4727 11.9703 31.5237 12.1943 31.5696 12.3955C32.0106 14.3283 32.0841 14.4558 33.5377 15.8041C33.6889 15.9445 33.8573 16.1007 34.0454 16.2772C34.5897 16.788 34.7237 17.5485 34.3871 18.2147C34.2707 18.445 34.1659 18.6494 34.0717 18.833C33.1671 20.5972 33.1415 20.7421 33.3882 22.7094C33.4138 22.914 33.4425 23.1419 33.4731 23.3981C33.5617 24.1392 33.1755 24.8082 32.4894 25.102C32.2522 25.2035 32.0405 25.2927 31.8505 25.3729C30.0235 26.1429 29.9108 26.2375 28.8352 27.9029C28.7233 28.0763 28.5987 28.2692 28.4575 28.4852C28.049 29.1099 27.3236 29.3742 26.6087 29.1582C26.3618 29.0835 26.1423 29.0157 25.9452 28.955C24.9978 28.6627 24.4872 28.5165 23.9769 28.5165ZM31.4203 18.7757C31.4203 14.6713 28.0812 11.3322 23.9769 11.3322C19.8726 11.3322 16.5335 14.6713 16.5335 18.7757C16.5335 22.8801 19.8726 26.2193 23.9769 26.2193C28.0812 26.2193 31.4203 22.8802 31.4203 18.7757ZM23.9768 24.7193C20.6996 24.7193 18.0334 22.053 18.0334 18.7757C18.0334 15.4985 20.6996 12.8322 23.9768 12.8322C27.254 12.8322 29.9202 15.4985 29.9202 18.7757C29.9203 22.053 27.254 24.7193 23.9768 24.7193ZM28.096 17.0073L22.9745 21.6552C22.8312 21.7852 22.6508 21.8498 22.4706 21.8498C22.2782 21.8498 22.0862 21.7762 21.9402 21.6301L19.8315 19.5215C19.5387 19.2286 19.5387 18.7538 19.8315 18.4609C20.1245 18.168 20.5992 18.168 20.8922 18.4609L22.4956 20.0643L27.088 15.8967C27.3946 15.6184 27.869 15.6413 28.1473 15.948C28.4257 16.2546 28.4027 16.729 28.096 17.0073ZM42.3342 41.5807C43.3228 40.5923 43.8249 39.3453 43.7861 37.9746L43.4209 25.0809C43.3849 23.8077 42.1191 22.6668 40.7542 22.6668C40.7411 22.6668 40.728 22.6669 40.715 22.6671C40.0491 22.6778 37.8779 23.0365 37.8937 27.2039L37.9204 34.2079C37.9211 34.368 37.9109 34.5236 37.8901 34.6752C37.8372 34.612 37.7806 34.5502 37.7202 34.4898C36.7946 33.5642 35.2786 33.5525 34.2689 34.4631C34.2438 34.4857 34.2202 34.51 34.1984 34.5357C33.0687 35.8715 31.6805 37.0415 30.565 37.9815C30.1737 38.3112 29.8044 38.6226 29.501 38.896C28.2289 40.0425 28.0591 41.6223 28.0608 43.0164L28.0668 48.0044L27.42 47.9989C26.9821 47.9949 26.5694 48.1626 26.2563 48.4703C25.9432 48.7781 25.7686 49.1885 25.7649 49.6258L25.7481 51.577C25.7443 52.0143 25.9118 52.4277 26.2196 52.7408C26.5272 53.0539 26.9377 53.2284 27.375 53.2321L37.5109 53.3192C37.5157 53.3192 37.5205 53.3193 37.5252 53.3193C37.9572 53.3193 38.365 53.1522 38.6746 52.8478C38.9877 52.54 39.1622 52.1296 39.166 51.6923L39.1827 49.7412C39.1865 49.3038 39.0191 48.8905 38.7113 48.5773C38.4036 48.2642 37.9931 48.0897 37.5558 48.086L36.7219 48.0789V47.193L42.3342 41.5807ZM37.6827 49.7283L37.666 51.6794C37.6656 51.7265 37.6424 51.7591 37.623 51.7782C37.6037 51.7973 37.5735 51.8196 37.5237 51.8194L27.3878 51.7323C27.3408 51.7319 27.3082 51.7088 27.2892 51.6894C27.2701 51.67 27.2475 51.6371 27.248 51.59L27.2648 49.6389C27.2652 49.5918 27.2883 49.5592 27.3077 49.5402C27.3268 49.5213 27.3595 49.4989 27.4057 49.4989H27.407L37.543 49.586C37.6195 49.5867 37.6835 49.6518 37.6827 49.7283ZM29.5668 48.0175L29.5608 43.0147C29.5589 41.487 29.8326 40.6167 30.5053 40.0103C30.7901 39.7536 31.1337 39.464 31.5315 39.1287C32.6783 38.1622 34.1028 36.9617 35.3067 35.5482C35.7277 35.1951 36.3025 35.1935 36.6596 35.5506C37.0396 35.9306 37.0401 36.3826 36.6627 36.8943C36.0664 37.5646 35.4394 38.1718 34.7759 38.8138C34.4575 39.1221 34.128 39.4408 33.7958 39.7732C33.5029 40.0661 33.5029 40.5409 33.7959 40.8338C33.9423 40.9802 34.1341 41.0534 34.3261 41.0534C34.5181 41.0534 34.7101 40.9802 34.8565 40.8337C35.18 40.5102 35.5048 40.1957 35.8191 39.8917C36.5123 39.2209 37.1669 38.5873 37.8083 37.8638C37.8117 37.8599 38.3106 37.2496 38.3106 37.2496C39.0616 36.3251 39.4246 35.3282 39.4204 34.2024L39.3937 27.1983C39.3867 25.342 39.9022 24.1804 40.739 24.167C40.7442 24.1669 40.7491 24.1669 40.7542 24.1669C41.3112 24.1669 41.9082 24.6539 41.9215 25.1234L42.2867 38.0172C42.3139 38.9787 41.973 39.8208 41.2736 40.5201L35.4416 46.3521C35.3009 46.4927 35.2219 46.6835 35.2219 46.8823V48.066L29.5668 48.0175ZM27.9863 50.4016C28.1099 50.0905 28.4625 49.9385 28.7737 50.0622C29.0848 50.1859 29.2368 50.5385 29.1132 50.8497C28.9894 51.1608 28.6369 51.3128 28.3257 51.189C28.0145 51.0653 27.8625 50.7128 27.9863 50.4016ZM19.7334 48.4705C19.4202 48.1626 19.0066 47.9957 18.5696 47.9991L17.9229 48.0046L17.9289 43.0166C17.9306 41.6224 17.7608 40.0426 16.4887 38.8962C16.1855 38.6227 15.8159 38.3114 15.4248 37.9818C14.3094 37.0417 12.9211 35.8717 11.7913 34.5359C11.7696 34.5102 11.7461 34.4859 11.7209 34.4633C10.7108 33.5527 9.19475 33.5645 8.26953 34.49C8.20906 34.5504 8.15253 34.6122 8.09966 34.6753C8.07875 34.5237 8.06872 34.3683 8.06937 34.2082L8.09609 27.204C8.11184 23.0366 5.94069 22.678 5.27478 22.6672C5.26166 22.667 5.24881 22.6669 5.23559 22.6669C3.87069 22.6669 2.60478 23.8078 2.56887 25.081L2.20362 37.9748C2.16491 39.3455 2.66694 40.5924 3.65544 41.5808L9.26778 47.1932V48.0791L8.43387 48.0862C7.99653 48.0899 7.58609 48.2644 7.27841 48.5775C6.97062 48.8907 6.80319 49.304 6.80694 49.7413L6.82372 51.6925C6.82747 52.1298 7.00194 52.5402 7.31506 52.8479C7.62472 53.1523 8.03234 53.3195 8.46444 53.3195C8.46922 53.3195 8.47409 53.3195 8.47878 53.3194L18.6147 53.2323C19.052 53.2286 19.4624 53.0541 19.7701 52.741C20.0779 52.4278 20.2453 52.0145 20.2416 51.5772L20.2248 49.626C20.2212 49.1887 20.0465 48.7782 19.7334 48.4705ZM10.7678 46.8823C10.7678 46.6834 10.6887 46.4927 10.5481 46.3521L4.71603 40.52C4.01666 39.8207 3.67578 38.9787 3.70297 38.0172L4.06822 25.1233C4.08162 24.6495 4.69334 24.1588 5.25069 24.167C6.0875 24.1804 6.60303 25.342 6.596 27.1982L6.56928 34.2024C6.56506 35.3282 6.92806 36.325 7.68041 37.2512L8.16191 37.8407C8.16519 37.8447 8.17812 37.8599 8.1815 37.8638C8.82284 38.5873 9.4775 39.2209 10.1707 39.8917C10.4849 40.1958 10.8097 40.5102 11.1333 40.8337C11.2797 40.9801 11.4717 41.0534 11.6637 41.0534C11.8556 41.0534 12.0476 40.9802 12.1939 40.8338C12.4869 40.5409 12.4869 40.0661 12.194 39.7732C11.8617 39.4409 11.5323 39.1221 11.2138 38.8138C10.5504 38.1717 9.92337 37.5646 9.32703 36.8943C8.94978 36.3827 8.95016 35.9307 9.33022 35.5507C9.6875 35.1935 10.2621 35.1951 10.6832 35.5482C11.887 36.9618 13.3114 38.1623 14.4583 39.1288C14.8561 39.4642 15.1997 39.7537 15.4845 40.0105C16.1572 40.6167 16.4308 41.4871 16.429 43.0148L16.423 48.0176L10.7679 48.0661L10.7678 46.8823ZM18.7004 51.6895C18.6814 51.7089 18.6488 51.732 18.6018 51.7324L8.46594 51.8195C8.41803 51.8196 8.38587 51.7974 8.36656 51.7782C8.34716 51.7592 8.324 51.7267 8.32362 51.6795L8.30684 49.7284C8.30637 49.6813 8.32897 49.6483 8.348 49.629C8.36703 49.6097 8.39966 49.5865 8.44662 49.5861L18.5824 49.499H18.5838C18.6301 49.499 18.6627 49.5214 18.6819 49.5402C18.7013 49.5593 18.7244 49.5919 18.7248 49.639L18.7416 51.5901C18.7421 51.6372 18.7195 51.6701 18.7004 51.6895ZM18.0034 50.4016C18.1272 50.7128 17.9752 51.0653 17.664 51.189C17.3529 51.3128 17.0003 51.1608 16.8766 50.8497C16.7529 50.5385 16.9048 50.186 17.216 50.0622C17.5272 49.9385 17.8797 50.0905 18.0034 50.4016Z" fill="#96D055"/>
</g>
</g>
<defs>
<clipPath id="clip0_1_1320">
<rect width="46" height="49" fill="white" transform="translate(-0.00500488 0.75)"/>
</clipPath>
</defs>
</svg>
