<svg width="52" height="50" viewBox="0 0 52 50" fill="none" xmlns="http://www.w3.org/2000/svg">
<g clip-path="url(#clip0_23_212)">
<mask id="mask0_23_212" style="mask-type:luminance" maskUnits="userSpaceOnUse" x="0" y="1" width="51" height="49">
<path d="M50.995 1.47998H0.994995V49.48H50.995V1.47998Z" fill="white"/>
</mask>
<g mask="url(#mask0_23_212)">
<path d="M34.1428 36.6742C34.6048 36.7994 34.8658 36.63 35.0113 36.4477L43.2613 26.1277C43.3933 25.9627 43.4495 25.7497 43.4158 25.542C43.3828 25.3335 43.2628 25.1482 43.0865 25.032L37.4675 21.3517L38.1718 14.3047C38.2048 13.974 38.0165 13.6612 37.7083 13.536C37.403 13.41 37.0475 13.5015 36.8398 13.7625L28.5898 24.0825C28.4578 24.2475 28.4015 24.4605 28.4353 24.6682C28.4683 24.8767 28.5883 25.062 28.7645 25.1782L34.3835 28.8585L33.6793 35.9055C33.6463 36.2362 33.8345 36.549 34.1428 36.6742ZM30.2765 24.3742L36.4265 16.6807L35.9293 21.6555C35.9015 21.9337 36.0313 22.2037 36.2645 22.3582L41.5745 25.8367L35.4245 33.5302L35.9218 28.5555C35.9495 28.2772 35.8198 28.0072 35.5865 27.8527L30.2765 24.3742Z" fill="#96D055"/>
<path d="M26.1757 1.47998C12.9419 1.47998 2.17565 12.2462 2.17565 25.48C2.17565 38.7137 12.9419 49.48 26.1757 49.48C39.4094 49.48 50.1757 38.7137 50.1757 25.48C50.1757 12.2462 39.4094 1.47998 26.1757 1.47998ZM26.1757 47.98C13.7692 47.98 3.67565 37.8865 3.67565 25.48C3.67565 13.0735 13.7692 2.97998 26.1757 2.97998C38.5822 2.97998 48.6757 13.0735 48.6757 25.48C48.6757 37.8865 38.5822 47.98 26.1757 47.98Z" fill="#96D055"/>
<path d="M22.8584 23.6298L17.4284 15.3198C17.1517 14.8953 16.4497 14.8953 16.1729 15.3198L10.7437 23.629C10.0447 24.694 9.67565 25.9308 9.67565 27.205C9.67565 28.9803 10.3949 30.625 11.6984 31.834C13.0094 33.0565 14.8214 33.73 16.8007 33.73C20.8627 33.73 23.9257 30.925 23.9257 27.205C23.9257 25.9315 23.5567 24.694 22.8584 23.6298ZM16.8007 32.23C15.2024 32.23 13.7542 31.6998 12.7207 30.7353C11.7247 29.812 11.1757 28.558 11.1757 27.205C11.1757 26.224 11.4599 25.2723 11.9984 24.4503L16.8007 17.101L21.6037 24.451C22.1414 25.2723 22.4257 26.224 22.4257 27.205C22.4257 30.0693 20.0069 32.23 16.8007 32.23Z" fill="#96D055"/>
<path d="M18.201 24.117C17.9085 24.408 17.907 24.882 18.1965 25.176C18.2055 25.1857 19.1107 26.1232 19.1107 27.498C19.1107 28.3785 18.1687 28.7722 17.2357 28.7722C16.821 28.7722 16.4857 29.1075 16.4857 29.5222C16.4857 29.937 16.821 30.2722 17.2357 30.2722C19.191 30.2722 20.6107 29.1052 20.6107 27.498C20.6107 25.4835 19.3125 24.1702 19.257 24.1155C18.9645 23.8245 18.4942 23.826 18.201 24.117Z" fill="#96D055"/>
<path d="M30.9562 5.80691C30.7484 5.75441 30.5287 5.79791 30.3524 5.91941L26.1757 8.81741L21.9989 5.91941C21.8234 5.79791 21.6037 5.75366 21.3952 5.80691C12.2864 8.00291 5.92565 16.0932 5.92565 25.4802C5.92565 34.8672 12.2864 42.9574 21.3952 45.1534C21.6029 45.2059 21.8227 45.1632 21.9989 45.0409L26.1757 42.1429L30.3524 45.0409C30.4792 45.1287 30.7132 45.2149 30.9562 45.1534C33.4417 44.5542 35.7637 43.4997 37.8584 42.0184C38.1967 41.7799 38.2777 41.3119 38.0377 40.9729C37.7999 40.6354 37.3297 40.5544 36.9922 40.7937C35.1442 42.0994 33.1057 43.0482 30.9277 43.6144L26.9249 40.8372V10.1224L30.9277 7.34516C39.1859 9.49091 44.9249 16.9002 44.9249 25.4802C44.9249 30.3447 43.0702 34.9549 39.7027 38.4612C39.4162 38.7597 39.4259 39.2344 39.7244 39.5217C40.0222 39.8074 40.4969 39.7992 40.7849 39.4999C44.4217 35.7132 46.4249 30.7339 46.4249 25.4809C46.4249 16.0939 40.0642 8.00366 30.9554 5.80766L30.9562 5.80691ZM21.4229 43.6152C13.1647 41.4694 7.42565 34.0602 7.42565 25.4802C7.42565 16.9002 13.1647 9.49166 21.4229 7.34516L25.4257 10.1224V40.8379L21.4229 43.6152Z" fill="#96D055"/>
</g>
</g>
<defs>
<clipPath id="clip0_23_212">
<rect width="51" height="49" fill="white" transform="translate(0.494995 0.97998)"/>
</clipPath>
</defs>
</svg>
