<svg width="34" height="29" viewBox="0 0 34 29" fill="none" xmlns="http://www.w3.org/2000/svg">
<g clip-path="url(#clip0_23_359)">
<path d="M1.34259 24.83C1.34259 27.038 3.13459 28.83 5.34259 28.83C7.55059 28.83 9.34259 27.038 9.34259 24.83C9.34259 22.902 7.96659 21.286 6.14259 20.91V15.23H16.5426V20.91C14.7186 21.278 13.3426 22.894 13.3426 24.83C13.3426 27.038 15.1346 28.83 17.3426 28.83C19.5506 28.83 21.3426 27.038 21.3426 24.83C21.3426 22.902 19.9666 21.286 18.1426 20.91V15.23H29.3426C29.7826 15.23 30.1426 14.87 30.1426 14.43V8.74996C31.9666 8.38196 33.3426 6.76596 33.3426 4.82996C33.3426 2.62196 31.5506 0.829956 29.3426 0.829956C27.1346 0.829956 25.3426 2.62196 25.3426 4.82996C25.3426 6.75796 26.7186 8.37396 28.5426 8.74996V13.63H18.1426V8.74996C19.9666 8.38196 21.3426 6.76596 21.3426 4.82996C21.3426 2.62196 19.5506 0.829956 17.3426 0.829956C15.1346 0.829956 13.3426 2.62196 13.3426 4.82996C13.3426 6.75796 14.7186 8.37396 16.5426 8.74996V13.63H6.14259V8.74996C7.96659 8.38196 9.34259 6.76596 9.34259 4.82996C9.34259 2.62196 7.55059 0.829956 5.34259 0.829956C3.13459 0.829956 1.34259 2.62196 1.34259 4.82996C1.34259 6.75796 2.71859 8.37396 4.54259 8.74996V20.91C2.71859 21.286 1.34259 22.902 1.34259 24.83ZM26.9426 4.82996C26.9426 3.50996 28.0226 2.42996 29.3426 2.42996C30.6626 2.42996 31.7426 3.50996 31.7426 4.82996C31.7426 6.14996 30.6626 7.22996 29.3426 7.22996C28.0226 7.22996 26.9426 6.14996 26.9426 4.82996ZM14.9426 4.82996C14.9426 3.50996 16.0226 2.42996 17.3426 2.42996C18.6626 2.42996 19.7426 3.50996 19.7426 4.82996C19.7426 6.14996 18.6626 7.22996 17.3426 7.22996C16.0226 7.22996 14.9426 6.14996 14.9426 4.82996ZM17.3426 22.43C18.6626 22.43 19.7426 23.51 19.7426 24.83C19.7426 26.15 18.6626 27.23 17.3426 27.23C16.0226 27.23 14.9426 26.15 14.9426 24.83C14.9426 23.51 16.0226 22.43 17.3426 22.43ZM2.94259 4.82996C2.94259 3.50996 4.02259 2.42996 5.34259 2.42996C6.66259 2.42996 7.74259 3.50996 7.74259 4.82996C7.74259 6.14996 6.66259 7.22996 5.34259 7.22996C4.02259 7.22996 2.94259 6.14996 2.94259 4.82996ZM5.34259 22.43C6.66259 22.43 7.74259 23.51 7.74259 24.83C7.74259 26.15 6.66259 27.23 5.34259 27.23C4.02259 27.23 2.94259 26.15 2.94259 24.83C2.94259 23.51 4.02259 22.43 5.34259 22.43Z" fill="white"/>
</g>
<defs>
<clipPath id="clip0_23_359">
<rect width="33" height="28" fill="white" transform="translate(0.659973 0.829956)"/>
</clipPath>
</defs>
</svg>
