<svg width="34" height="33" viewBox="0 0 34 33" fill="none" xmlns="http://www.w3.org/2000/svg">
<g clip-path="url(#clip0_23_180)">
<g clip-path="url(#clip1_23_180)">
<path d="M33.2287 30.664C32.9937 30.2319 22.0949 10.1902 22.0927 10.1863V7.54981H28.6551C29.0343 7.54981 29.3762 7.32137 29.5212 6.97106C29.6663 6.62076 29.5861 6.21752 29.318 5.94939L27.1685 3.79987L29.318 1.65028C29.5861 1.38216 29.6663 0.978912 29.5212 0.628605C29.3762 0.278361 29.0343 0.0499268 28.6551 0.0499268H21.1552C20.6375 0.0499268 20.2178 0.46967 20.2178 0.987411V10.1852L13.5334 22.409L10.6535 17.4536C10.4856 17.1647 10.1768 16.9871 9.84291 16.9871H9.84022C9.50529 16.9881 9.19629 17.1677 9.02967 17.4582L1.4673 30.6455C1.30093 30.9356 1.30174 31.2924 1.46936 31.5818C1.63698 31.8712 1.9461 32.0494 2.28053 32.0494C2.68327 32.0494 32.0858 32.0494 32.4051 32.0494C32.7357 32.0494 33.0419 31.8752 33.2109 31.5909C33.3799 31.3067 33.3867 30.9545 33.2287 30.664ZM22.0927 1.9249H26.3918L25.1798 3.137C24.8137 3.50306 24.8137 4.09668 25.1798 4.46273L26.3918 5.67484H22.0927V1.9249ZM21.1529 12.3829L25.2731 19.9593L23.93 21.9367L21.9052 19.2371C21.7282 19.001 21.4503 18.8621 21.1552 18.8621C20.8602 18.8621 20.5823 19.001 20.4053 19.2371L18.3805 21.9367L17.0222 19.9369L21.1529 12.3829ZM3.89882 30.1744L9.84834 19.7996L12.4821 24.3314L9.28704 30.1744H3.89882ZM11.4241 30.1744C11.9552 29.2032 15.4819 22.7537 16.0113 21.7855L17.5673 24.0763C17.7374 24.3267 18.0181 24.4796 18.3209 24.4867C18.623 24.4936 18.9111 24.3542 19.0928 24.112L21.1552 21.362L23.2177 24.112C23.395 24.3484 23.673 24.487 23.9676 24.487C23.975 24.487 23.9823 24.4869 23.9896 24.4867C24.2924 24.4796 24.5731 24.3267 24.7432 24.0763L26.2808 21.8125L30.8282 30.1744H11.4241Z" fill="white"/>
</g>
</g>
<defs>
<clipPath id="clip0_23_180">
<rect width="33" height="32" fill="white" transform="translate(0.659973 0.0499268)"/>
</clipPath>
<clipPath id="clip1_23_180">
<rect width="33" height="32" fill="white" transform="translate(0.659973 0.0499268)"/>
</clipPath>
</defs>
</svg>
