<svg width="52" height="50" viewBox="0 0 52 50" fill="none" xmlns="http://www.w3.org/2000/svg">
<g clip-path="url(#clip0_23_432)">
<mask id="mask0_23_432" style="mask-type:luminance" maskUnits="userSpaceOnUse" x="0" y="1" width="51" height="49">
<path d="M50.995 1.47998H0.994995V49.48H50.995V1.47998Z" fill="white"/>
</mask>
<g mask="url(#mask0_23_432)">
<path d="M44.2851 8.12727C44.525 8.12727 44.765 8.03568 44.948 7.85268L46.5904 6.21027C46.9565 5.84418 46.9565 5.25055 46.5904 4.88436C46.2243 4.51836 45.6307 4.51836 45.2645 4.88436L43.6221 6.52677C43.256 6.89286 43.256 7.48649 43.6221 7.85268C43.8053 8.03568 44.0452 8.12727 44.2851 8.12727Z" fill="#96D055"/>
<path d="M31.7923 7.85258C31.9754 8.03558 32.2153 8.12718 32.4553 8.12718C32.6952 8.12718 32.9352 8.03558 33.1182 7.85258C33.4843 7.48649 33.4843 6.89286 33.1182 6.52668L31.4758 4.88436C31.1098 4.51836 30.5161 4.51836 30.1499 4.88436C29.7838 5.25046 29.7838 5.84408 30.1499 6.21027L31.7923 7.85258Z" fill="#96D055"/>
<path d="M38.3701 18.657C41.4317 18.657 43.9224 16.1663 43.9224 13.1047C43.9224 10.0431 41.4317 7.55225 38.3701 7.55225C35.3085 7.55225 32.8178 10.043 32.8178 13.1047C32.8177 16.1663 35.3085 18.657 38.3701 18.657ZM38.3701 9.42734C40.3978 9.42734 42.0474 11.0771 42.0474 13.1048C42.0474 15.1325 40.3978 16.7821 38.3701 16.7821C36.3424 16.7821 34.6928 15.1325 34.6928 13.1048C34.6928 11.0771 36.3424 9.42734 38.3701 9.42734Z" fill="#96D055"/>
<path d="M44.948 18.357C44.5819 17.991 43.9883 17.991 43.6221 18.357C43.256 18.7231 43.256 19.3168 43.6221 19.6829L45.2645 21.3254C45.4476 21.5084 45.6875 21.5999 45.9274 21.5999C46.1673 21.5999 46.4073 21.5084 46.5903 21.3254C46.9564 20.9593 46.9564 20.3656 46.5903 19.9994L44.948 18.357Z" fill="#96D055"/>
<path d="M31.7923 18.357L30.1499 19.9994C29.7838 20.3655 29.7838 20.9592 30.1499 21.3254C30.333 21.5084 30.5729 21.5999 30.8128 21.5999C31.0528 21.5999 31.2928 21.5084 31.4758 21.3254L33.1182 19.6829C33.4843 19.3169 33.4843 18.7232 33.1182 18.357C32.7521 17.991 32.1584 17.991 31.7923 18.357Z" fill="#96D055"/>
<path d="M45.7972 13.105C45.7972 13.6227 46.217 14.0425 46.7347 14.0425H49.0574C49.5752 14.0425 49.9949 13.6227 49.9949 13.105C49.9949 12.5873 49.5752 12.1675 49.0574 12.1675H46.7347C46.217 12.1675 45.7972 12.5873 45.7972 13.105Z" fill="#96D055"/>
<path d="M38.37 5.67764C38.8878 5.67764 39.3075 5.25782 39.3075 4.74014V2.41748C39.3075 1.89979 38.8878 1.47998 38.37 1.47998C37.8522 1.47998 37.4325 1.89979 37.4325 2.41748V4.74004C37.4325 5.25782 37.8522 5.67764 38.37 5.67764Z" fill="#96D055"/>
<path d="M37.4325 21.4692V23.7918C37.4325 24.3095 37.8522 24.7293 38.37 24.7293C38.8878 24.7293 39.3075 24.3095 39.3075 23.7918V21.4692C39.3075 20.9515 38.8878 20.5317 38.37 20.5317C37.8522 20.5317 37.4325 20.9514 37.4325 21.4692Z" fill="#96D055"/>
<path d="M27.6825 14.0425H30.0052C30.5229 14.0425 30.9427 13.6227 30.9427 13.105C30.9427 12.5873 30.5229 12.1675 30.0052 12.1675H27.6825C27.1647 12.1675 26.745 12.5873 26.745 13.105C26.745 13.6228 27.1647 14.0425 27.6825 14.0425Z" fill="#96D055"/>
<path d="M49.0575 47.6047H36.1447V44.9797H47.0216C47.7282 44.9797 48.3796 44.6578 48.8089 44.0966C49.2381 43.5353 49.3781 42.8223 49.193 42.1404L45.631 29.0155C45.3657 28.0377 44.4728 27.3548 43.4596 27.3548H21.7287C20.7155 27.3548 19.8226 28.0377 19.5573 29.0155L17.7909 35.5238V21.2857L21.4891 23.4207C22.6496 24.0908 23.9738 24.4361 25.3025 24.436C25.9734 24.436 26.6455 24.348 27.2981 24.1692C27.7953 24.0331 28.088 23.516 27.9549 23.018C27.4302 21.0542 26.1717 19.4128 24.4114 18.3964L17.8847 14.6282V7.13736C17.8847 5.1046 17.0925 3.19407 15.6508 1.75455C15.2861 1.38977 14.6953 1.38837 14.3287 1.7509C12.8948 3.16914 12.0723 5.13919 12.0723 7.15593V14.6434L5.57189 18.3965C3.81146 19.4128 2.55297 21.0541 2.02713 23.0226C1.89372 23.5207 2.18773 24.0331 2.68517 24.1692C3.33785 24.348 4.00974 24.436 4.6808 24.436C6.00933 24.436 7.33372 24.0907 8.49426 23.4207L12.1661 21.3008V29.9328C12.1661 30.4505 12.5859 30.8703 13.1036 30.8703C13.6214 30.8703 14.0411 30.4505 14.0411 29.9328V20.2183L14.9917 19.6695L15.9161 20.2032V47.6048H14.0411V38.3705C14.0411 37.8528 13.6214 37.433 13.1036 37.433C12.5859 37.433 12.1661 37.8528 12.1661 38.3705V47.6048H2.93276C2.41498 47.6048 1.99525 48.0246 1.99525 48.5423C1.99525 49.06 2.41498 49.4798 2.93276 49.4798H49.0575C49.5753 49.4798 49.995 49.06 49.995 48.5423C49.995 48.0246 49.5753 47.6047 49.0575 47.6047ZM16.3296 16.3214C16.3296 17.0663 15.7235 17.6724 14.9784 17.6724C14.2334 17.6724 13.6273 17.0663 13.6273 16.3214C13.6273 15.5763 14.2334 14.9702 14.9784 14.9702C15.7235 14.9702 16.3296 15.5763 16.3296 16.3214ZM25.7931 22.5408C24.6297 22.6405 23.4447 22.3848 22.4265 21.797L17.1185 18.7325C17.6364 18.2724 18.0054 17.6487 18.1438 16.943L23.4738 20.0202C24.5002 20.6128 25.3 21.4871 25.7931 22.5408ZM14.9868 3.86813C15.6517 4.82053 16.0097 5.95134 16.0097 7.13736V13.2652C15.6856 13.1556 15.3391 13.0953 14.9784 13.0953C14.6178 13.0953 14.2713 13.1556 13.9472 13.2652V7.15593C13.9473 5.98012 14.3183 4.82541 14.9868 3.86813ZM7.55666 21.797C6.53846 22.3849 5.35289 22.6414 4.18955 22.5407C4.68183 21.4886 5.48217 20.6132 6.50929 20.0202L11.8155 16.9567C11.9569 17.6615 12.3289 18.2835 12.8488 18.7416L7.55666 21.797ZM25.5806 43.1047L26.0385 39.7298H31.6484V43.1047H25.5806ZM18.1667 43.1047C18.0054 43.1047 17.9108 43.0126 17.8688 42.9576C17.8267 42.9026 17.7625 42.7872 17.8048 42.6315L18.5923 39.7298H24.1463L23.6883 43.1047H18.1667ZM20.0171 34.4798H24.8587L24.4007 37.8548H19.1012L20.0171 34.4798ZM31.6483 29.2298V32.6048H27.0053L27.4632 29.2298H31.6483ZM37.7084 29.2298L38.1663 32.6048H33.5233V29.2298H37.7084ZM46.0872 37.8548H40.771L40.313 34.4798H45.1713L46.0872 37.8548ZM38.8787 37.8548H33.5233V34.4798H38.4208L38.8787 37.8548ZM31.6483 34.4798V37.8548H26.293L26.7509 34.4798H31.6483ZM33.5233 39.7298H39.1332L39.5911 43.1047H33.5233V39.7298ZM47.3196 42.9576C47.2776 43.0126 47.1829 43.1047 47.0217 43.1047H41.4834L41.0254 39.7298H46.5961L47.3836 42.6315C47.4258 42.7872 47.3616 42.9026 47.3196 42.9576ZM43.8215 29.5066L44.6623 32.6048H40.0585L39.6005 29.2298H43.4596C43.6285 29.2298 43.7773 29.3436 43.8215 29.5066ZM21.7287 29.2298H25.5711L25.1131 32.6048H20.526L21.3668 29.5066C21.4111 29.3436 21.5598 29.2298 21.7287 29.2298ZM17.7909 44.9485C17.9137 44.9689 18.0393 44.9797 18.1667 44.9797H29.0198V47.6047H17.7909V44.9485ZM30.8947 47.6047V44.9797H34.2697V47.6047H30.8947Z" fill="#96D055"/>
<path d="M13.1034 35.0894C13.35 35.0894 13.5918 34.9899 13.7662 34.8146C13.9406 34.6403 14.0409 34.3984 14.0409 34.1519C14.0409 33.9053 13.9406 33.6634 13.7662 33.4891C13.5918 33.3147 13.35 33.2144 13.1034 33.2144C12.8568 33.2144 12.615 33.3146 12.4406 33.4891C12.2662 33.6635 12.1659 33.9053 12.1659 34.1519C12.1659 34.3984 12.2662 34.6403 12.4406 34.8146C12.615 34.99 12.8568 35.0894 13.1034 35.0894Z" fill="#96D055"/>
</g>
</g>
<defs>
<clipPath id="clip0_23_432">
<rect width="51" height="49" fill="white" transform="translate(0.494995 0.97998)"/>
</clipPath>
</defs>
</svg>
