<svg width="14" height="13" viewBox="0 0 14 13" fill="none" xmlns="http://www.w3.org/2000/svg">
<path d="M5.97561 0.862061L6.57717 0.260498C6.85061 0.0144043 7.26077 0.0144043 7.50686 0.260498L12.8389 5.56519C13.085 5.83862 13.085 6.24878 12.8389 6.49487L7.50686 11.8269C7.26077 12.073 6.85061 12.073 6.57717 11.8269L5.97561 11.2253C5.72952 10.9519 5.72952 10.5417 5.97561 10.2683L9.2842 7.12378H1.43655C1.05374 7.12378 0.780298 6.85034 0.780298 6.46753V5.59253C0.780298 5.23706 1.05374 4.93628 1.43655 4.93628H9.2842L5.97561 1.81909C5.72952 1.54565 5.70217 1.1355 5.97561 0.862061Z" fill="#96D055"/>
</svg>
