<svg width="46" height="50" viewBox="0 0 46 50" fill="none" xmlns="http://www.w3.org/2000/svg">
<g clip-path="url(#clip0_23_311)">
<path d="M23.6746 5.88428C21.7818 5.88428 20.2421 7.42405 20.2421 9.31679C20.2421 11.2095 21.7818 12.7492 23.6746 12.7492C25.5673 12.7492 27.1071 11.2094 27.1071 9.31679C27.1072 7.42405 25.5673 5.88428 23.6746 5.88428ZM23.6746 11.3793C22.5373 11.3793 21.6119 10.454 21.6119 9.3167C21.6119 8.1794 22.5372 7.25407 23.6746 7.25407C24.812 7.25407 25.7372 8.17931 25.7372 9.3167C25.7372 10.4541 24.812 11.3793 23.6746 11.3793Z" fill="#96D055"/>
<path d="M23.6746 2.22119C23.2962 2.22119 22.9896 2.52791 22.9896 2.90613V3.82193C22.9896 4.20024 23.2963 4.50687 23.6746 4.50687C24.0529 4.50687 24.3595 4.20015 24.3595 3.82193V2.90613C24.3596 2.52791 24.053 2.22119 23.6746 2.22119Z" fill="#96D055"/>
<path d="M20.2738 4.9472L19.6262 4.29969C19.3588 4.03222 18.9251 4.03231 18.6575 4.29969C18.39 4.56716 18.39 5.00089 18.6576 5.26845L19.3051 5.91605C19.4388 6.04979 19.6142 6.11666 19.7894 6.11666C19.9647 6.11666 20.14 6.04979 20.2739 5.91596C20.5413 5.6484 20.5413 5.21467 20.2738 4.9472Z" fill="#96D055"/>
<path d="M18.1797 8.63135H17.2639C16.8855 8.63135 16.579 8.93807 16.579 9.31629C16.579 9.6946 16.8856 10.0012 17.2639 10.0012H18.1797C18.5581 10.0012 18.8647 9.69451 18.8647 9.31629C18.8647 8.93807 18.558 8.63135 18.1797 8.63135Z" fill="#96D055"/>
<path d="M20.2739 12.7177C20.0063 12.4502 19.5727 12.4502 19.305 12.7177L18.6575 13.3652C18.39 13.6327 18.39 14.0664 18.6575 14.3339C18.7913 14.4676 18.9667 14.5346 19.1419 14.5346C19.3172 14.5346 19.4925 14.4677 19.6264 14.3339L20.2739 13.6864C20.5414 13.4189 20.5414 12.9852 20.2739 12.7177Z" fill="#96D055"/>
<path d="M23.6751 14.1265C23.2967 14.1265 22.9901 14.4332 22.9901 14.8114V15.7272C22.9901 16.1055 23.2967 16.4122 23.6751 16.4122C24.0534 16.4122 24.36 16.1054 24.36 15.7272V14.8114C24.3601 14.4332 24.0535 14.1265 23.6751 14.1265Z" fill="#96D055"/>
<path d="M28.6923 13.3653L28.0448 12.7178C27.7773 12.4503 27.3436 12.4502 27.0761 12.7177C26.8085 12.9851 26.8085 13.4189 27.076 13.6864L27.7235 14.3339C27.8573 14.4677 28.0326 14.5345 28.2079 14.5345C28.3832 14.5345 28.5585 14.4677 28.6922 14.3339C28.9598 14.0665 28.9598 13.6327 28.6923 13.3653Z" fill="#96D055"/>
<path d="M30.0855 8.63232H29.1697C28.7913 8.63232 28.4847 8.93904 28.4847 9.31726C28.4847 9.69548 28.7914 10.0022 29.1697 10.0022H30.0855C30.4639 10.0022 30.7704 9.69548 30.7704 9.31726C30.7704 8.93904 30.4639 8.63232 30.0855 8.63232Z" fill="#96D055"/>
<path d="M28.6921 4.29969C28.4248 4.03222 27.991 4.03231 27.7235 4.29969L27.076 4.9472C26.8085 5.21467 26.8085 5.6484 27.0761 5.91596C27.2097 6.04979 27.385 6.11666 27.5603 6.11666C27.7356 6.11666 27.9109 6.04979 28.0447 5.91596L28.6922 5.26845C28.9597 5.00098 28.9597 4.56725 28.6921 4.29969Z" fill="#96D055"/>
<path d="M42.6744 37.3073C42.6738 37.2953 42.6737 37.2834 42.6725 37.2714C42.6702 37.2474 42.6666 37.2237 42.6616 37.2004C42.6616 37.1998 42.6616 37.1994 42.6614 37.1988L41.4415 31.4044C41.441 31.4023 41.4406 31.4003 41.4402 31.3983L40.2204 25.6042C40.22 25.6021 40.2195 25.6001 40.2192 25.598L38.9982 19.7983C38.9315 19.4813 38.6519 19.2544 38.3279 19.2544H9.02156C8.69758 19.2544 8.41803 19.4813 8.35125 19.7983L7.13055 25.5974C7.13001 25.5998 7.12946 25.6022 7.12901 25.6047L5.90931 31.3988C5.90895 31.4004 5.90858 31.4022 5.90831 31.4038L4.68852 37.1983C4.68343 37.2227 4.67953 37.2477 4.67707 37.273C4.67653 37.2788 4.67662 37.2848 4.67616 37.2906C4.67498 37.3069 4.67371 37.3231 4.67371 37.3398V40.0874C4.67371 40.4657 4.98034 40.7724 5.35865 40.7724H21.6159V44.6205H16.348C15.9696 44.6205 15.6631 44.9272 15.6631 45.3055V47.3682H9.02165C8.64325 47.3682 8.33672 47.6749 8.33672 48.0531C8.33672 48.4313 8.64334 48.7381 9.02165 48.7381H16.3481H31.0013H38.3268C38.7052 48.7381 39.0117 48.4313 39.0117 48.0531C39.0117 47.6749 38.7051 47.3682 38.3268 47.3682H31.6863V45.3055C31.6863 44.9272 31.3797 44.6205 31.0014 44.6205H25.7336V40.7724H41.9909C42.3693 40.7724 42.6758 40.4656 42.6758 40.0874V37.352C42.6759 37.3511 42.6759 37.35 42.6759 37.3489V37.34C42.676 37.3289 42.6749 37.3182 42.6744 37.3073ZM41.1469 36.6549H30.419L30.108 32.2247H40.2142L41.1469 36.6549ZM38.9932 26.4245L39.926 30.8548H30.0118L29.7009 26.4245H38.9932ZM37.7721 20.6244L38.7049 25.0546H29.6047L29.2937 20.6244H37.7721ZM19.4289 20.6244H27.9205L28.2315 25.0546H19.118L19.4289 20.6244ZM19.022 26.4245H28.3276L28.6386 30.8548H18.7111L19.022 26.4245ZM18.6151 32.2247H28.7347L29.0456 36.6549H18.3042L18.6151 32.2247ZM9.5774 20.6244H18.0557L17.7448 25.0546H8.64471L9.5774 20.6244ZM8.35643 26.4245H17.6487L17.3378 30.8548H7.42374L8.35643 26.4245ZM30.3165 45.9907V47.3684H17.0331V45.9907H22.301H25.0487H30.3165ZM22.9859 44.6207V40.7725H24.3637V44.6207H22.9859ZM25.0566 39.4026C25.054 39.4026 25.0514 39.4022 25.0487 39.4022H22.301C22.2983 39.4022 22.2957 39.4026 22.2931 39.4026H6.04359V38.0249H9.30657C9.68497 38.0249 9.99151 37.7182 9.99151 37.3399C9.99151 36.9616 9.68488 36.655 9.30657 36.655H6.20276L7.13537 32.2247H17.2417L16.9308 36.6549H12.2687C11.8903 36.6549 11.5837 36.9616 11.5837 37.3399C11.5837 37.7182 11.8903 38.0248 12.2686 38.0248H17.5688C17.5693 38.0248 17.5696 38.0248 17.5701 38.0248C17.5698 38.0248 17.5704 38.0248 17.5701 38.0248H29.7786C29.7784 38.0248 29.7789 38.0248 29.7786 38.0248C29.7791 38.0248 29.7803 38.0248 29.7808 38.0248H41.3058V39.4025L25.0566 39.4026Z" fill="#96D055"/>
</g>
<defs>
<clipPath id="clip0_23_311">
<rect width="46" height="49" fill="white" transform="translate(-0.00500488 0.97998)"/>
</clipPath>
</defs>
</svg>
