<svg width="19" height="18" viewBox="0 0 19 18" fill="none" xmlns="http://www.w3.org/2000/svg">
<path d="M18.2188 8.7699C18.2188 13.5863 14.2812 17.4886 9.5 17.4886C4.68359 17.4886 0.78125 13.5863 0.78125 8.7699C0.78125 3.98865 4.68359 0.0511475 9.5 0.0511475C14.2812 0.0511475 18.2188 3.98865 18.2188 8.7699ZM8.48047 13.4105L14.9492 6.94177C15.1602 6.73083 15.1602 6.34412 14.9492 6.13318L14.1406 5.35974C13.9297 5.11365 13.5781 5.11365 13.3672 5.35974L8.09375 10.6332L5.59766 8.17224C5.38672 7.92615 5.03516 7.92615 4.82422 8.17224L4.01562 8.94568C3.80469 9.15662 3.80469 9.54333 4.01562 9.75427L7.67188 13.4105C7.88281 13.6215 8.26953 13.6215 8.48047 13.4105Z" fill="#96D055"/>
</svg>
