<svg width="17" height="19" viewBox="0 0 17 19" fill="none" xmlns="http://www.w3.org/2000/svg">
<path d="M11.5039 11.3774C14.1055 11.3774 16.25 13.522 16.25 16.1235V17.0024C16.25 17.9517 15.4766 18.6899 14.5625 18.6899H2.1875C1.23828 18.6899 0.5 17.9517 0.5 17.0024V16.1235C0.5 13.522 2.60938 11.3774 5.21094 11.3774C6.23047 11.3774 6.6875 11.9399 8.375 11.9399C10.0273 11.9399 10.4844 11.3774 11.5039 11.3774ZM14.5625 17.0024V16.1235C14.5625 14.436 13.1914 13.0649 11.5039 13.0649C10.9766 13.0649 10.168 13.6274 8.375 13.6274C6.54688 13.6274 5.73828 13.0649 5.21094 13.0649C3.52344 13.0649 2.1875 14.436 2.1875 16.1235V17.0024H14.5625ZM8.375 10.8149C5.5625 10.8149 3.3125 8.56494 3.3125 5.75244C3.3125 2.9751 5.5625 0.689941 8.375 0.689941C11.1523 0.689941 13.4375 2.9751 13.4375 5.75244C13.4375 8.56494 11.1523 10.8149 8.375 10.8149ZM8.375 2.37744C6.51172 2.37744 5 3.92432 5 5.75244C5 7.61572 6.51172 9.12744 8.375 9.12744C10.2031 9.12744 11.75 7.61572 11.75 5.75244C11.75 3.92432 10.2031 2.37744 8.375 2.37744Z" fill="#96D055"/>
</svg>
