<svg width="21" height="20" viewBox="0 0 21 20" fill="none" xmlns="http://www.w3.org/2000/svg">
<path d="M5.28273 6.64439V5.67212C5.30482 5.25227 5.63628 4.92082 6.03403 4.92082H14.6519C15.0496 4.92082 15.3811 5.25227 15.3811 5.65002L15.3811 14.2679C15.3811 14.6656 15.0496 14.9971 14.6298 15.0192H13.6575C13.2377 14.9971 12.9062 14.6656 12.9062 14.2237L13.0388 9.05297L6.69694 15.3948C6.38758 15.7042 5.92354 15.6821 5.63628 15.3948L4.92917 14.6877C4.61981 14.3784 4.61981 13.9364 4.92917 13.6271L11.271 7.28521L6.05612 7.41779C5.63628 7.39569 5.28273 7.08633 5.28273 6.64439Z" fill="white"/>
</svg>
