<svg width="52" height="50" viewBox="0 0 52 50" fill="none" xmlns="http://www.w3.org/2000/svg">
<g clip-path="url(#clip0_23_378)">
<g clip-path="url(#clip1_23_378)">
<mask id="mask0_23_378" style="mask-type:luminance" maskUnits="userSpaceOnUse" x="0" y="1" width="51" height="49">
<path d="M50.995 1.47998H0.994995V49.48H50.995V1.47998Z" fill="white"/>
</mask>
<g mask="url(#mask0_23_378)">
<path d="M51.9232 20.4475C51.7676 19.834 51.2029 19.3925 50.567 19.3925C50.4256 19.3884 42.555 20.0741 42.4146 20.0792C41.0981 20.1443 40.1285 21.0152 39.2139 21.8678C38.8812 21.6582 38.4925 21.5483 38.0978 21.5534L30.4927 13.2891C29.9678 12.7183 29.0714 12.6858 28.5068 13.2179C28.0082 13.6706 27.9207 14.4896 28.3165 15.0349L32.9233 21.6521C33.6385 22.7601 34.8798 23.1619 36.0711 23.5333C36.0548 23.9545 36.179 24.396 36.4242 24.7521L33.1858 35.2039C32.8918 36.0849 33.5948 37.0403 34.5216 37.026C35.771 37.0301 35.9887 35.6363 36.4679 34.7715L36.4018 38.2845C35.3661 38.4494 34.366 38.7495 33.3699 39.0547C25.9958 41.7101 27.2279 36.906 21.2476 38.1553L21.0126 22.0296L28.4996 32.0977C28.8232 32.5332 29.3227 32.7631 29.8284 32.7631C31.034 32.8079 31.9008 31.3561 31.2751 30.3112L26.1189 20.9409C25.2969 19.2612 23.4106 18.605 21.8204 17.8928C21.7828 17.7911 21.739 17.6914 21.6882 17.5947L27.6583 3.78656C28.0164 2.95026 27.6288 1.97661 26.7945 1.61645C26.0559 1.28274 25.13 1.58288 24.721 2.27878L19.1833 11.4272C18.2148 12.9015 18.4783 14.6839 18.6472 16.3301C18.11 16.4959 17.6359 16.8347 17.3093 17.2905L2.45729 19.014C1.55587 19.1198 0.903713 19.9408 1.00545 20.8473C1.08685 21.648 1.81022 22.3073 2.616 22.3104C2.76149 22.3083 13.2733 22.5352 13.4137 22.5322C15.0466 22.5922 16.3753 21.6114 17.6196 20.6917L17.3571 38.6508C14.6457 38.255 13.3536 35.2456 10.0745 35.504V30.1626C10.2556 30.068 10.4103 29.9337 10.5283 29.771L13.8176 30.2735C14.1431 30.3254 14.4636 30.0975 14.5135 29.7618C14.5643 29.4281 14.3354 29.1168 14.0017 29.0659L10.7155 28.5643C10.5588 28.0831 10.1081 27.726 9.60553 27.6751L8.39686 24.5792C8.27477 24.2648 7.92072 24.1101 7.60634 24.2322C7.29197 24.3543 7.13732 24.7084 7.25941 25.0227L8.46808 28.1187C8.13437 28.4941 8.03974 29.0669 8.25543 29.5227L6.1769 32.1201C5.85133 32.5006 6.16061 33.1273 6.65304 33.1121C6.8321 33.1121 7.00913 33.0337 7.1302 32.8832L8.85367 30.7304V35.6922C6.76801 36.1999 5.03538 37.7535 3.52556 39.1626C2.94259 39.7069 3.76566 40.5991 4.35372 40.0589C5.70075 38.8207 7.09866 37.5062 8.85367 36.9599V37.6029C7.9899 37.5123 7.88206 38.7902 8.75193 38.8238H10.1763C11.0451 38.7902 10.9393 37.5123 10.0745 37.6029V36.7279C12.9355 36.4746 14.5114 39.7425 17.3398 39.8798L17.2177 48.2591H15.8666C15.0659 48.2723 15.0629 49.4658 15.8666 49.48H22.7463C23.083 49.48 23.3567 49.2063 23.3567 48.8696C23.3567 48.5328 23.083 48.2591 22.7463 48.2591H21.3941L21.2649 39.3986C25.4241 38.3273 25.7791 41.1017 29.4031 41.0997C31.7726 41.0976 34.0546 39.946 36.3774 39.5288L36.3194 42.5841H35.6723C34.8716 42.5973 34.8686 43.7907 35.6723 43.805H40.6311C40.9679 43.805 41.2416 43.5313 41.2416 43.1945C41.1978 42.4681 40.5019 42.5861 39.984 42.5841L39.923 39.2958C43.1421 39.3915 46.3479 40.3265 49.2566 41.0447C49.9505 41.0539 50.097 40.0212 49.4143 39.8442C46.6399 39.0995 43.2265 38.1848 39.9006 38.0739L39.6564 24.9678C39.748 24.865 39.8284 24.7531 39.8976 24.6341L50.8722 22.1557C51.6231 22.0051 52.1297 21.1861 51.9232 20.4475ZM30.2587 31.1088C30.2709 31.5148 29.7124 31.704 29.4794 31.3703L27.9096 29.2592C28.2494 29.0191 28.5729 28.7668 28.8852 28.5002C28.9076 28.5928 30.3635 31.061 30.2597 31.1078L30.2587 31.1088ZM25.0486 21.53L28.2819 27.4065C27.9319 27.7168 27.5677 28.0068 27.1801 28.2794L21.3667 20.4617C21.6515 20.1311 21.852 19.714 21.9334 19.2846C23.1135 19.8035 24.4372 20.2959 25.0486 21.53ZM25.7639 2.90956C26.0335 2.4558 26.7446 2.81698 26.5361 3.3033L25.4129 5.90275C25.0313 5.72471 24.6437 5.56294 24.2469 5.41745L25.7649 2.91058L25.7639 2.90956ZM20.2272 12.057L23.6009 6.48267C24.0526 6.63833 24.4962 6.81943 24.9276 7.02189L20.7817 16.6119C20.5039 16.4339 20.1885 16.3118 19.865 16.2538C19.7571 14.9159 19.4092 13.2484 20.2272 12.057ZM19.3349 17.436C21.562 17.4808 20.9709 20.77 18.8689 20.0385C17.5616 19.485 17.9187 17.5021 19.3349 17.436ZM2.3586 20.9776C2.08187 20.7415 2.24058 20.2603 2.5987 20.2277L5.21748 19.9235C5.24902 20.3447 5.29685 20.7507 5.36094 21.1465C5.19002 21.1017 2.39421 21.1933 2.3586 20.9776ZM15.6173 20.6093C14.957 21.0793 14.1441 21.3306 13.3343 21.3113L6.6042 21.1719C6.52281 20.7263 6.46584 20.2654 6.43125 19.7821L16.8352 18.5745C16.8046 18.9387 16.8514 19.306 16.9735 19.6529L15.6163 20.6093H15.6173ZM18.4386 48.2591L18.8323 21.3062C19.1457 21.3784 19.4662 21.3916 19.7816 21.3438C19.8701 27.4401 20.0868 42.346 20.1733 48.2591H18.4386ZM37.6247 24.2709C36.6755 23.5068 37.9442 22.1649 38.7611 23.0714C39.3909 23.807 38.401 24.8579 37.6247 24.2709ZM33.9265 20.9572L29.3187 14.337C29.1966 14.1712 29.4458 13.9534 29.5954 14.1172L36.8484 21.999C36.708 22.111 36.5829 22.2402 36.4761 22.3836C35.6001 22.0896 34.4413 21.8047 33.9265 20.9572ZM34.6824 35.7054C34.5928 35.9038 34.2795 35.7787 34.3517 35.5711L37.4578 25.5457C37.6634 25.6159 37.879 25.6535 38.0958 25.6566C38.2941 26.5244 38.5617 27.5693 38.112 28.4025C37.2717 30.1922 35.5289 33.9006 34.6824 35.7054ZM37.5423 42.5841L37.7407 32.0642L38.5373 30.3682C38.5861 33.0154 38.7174 40.0365 38.7642 42.5841H37.5423ZM50.7186 20.887C50.6413 21.059 40.2842 23.2433 40.155 23.3257C40.1306 23.1446 40.0807 22.9676 40.0074 22.7977C40.7033 22.1781 41.5193 21.3204 42.5174 21.297L50.5548 20.6154C50.6932 20.594 50.799 20.7822 50.7186 20.887Z" fill="#96D055"/>
</g>
</g>
</g>
<defs>
<clipPath id="clip0_23_378">
<rect width="51" height="49" fill="white" transform="translate(0.494995 0.97998)"/>
</clipPath>
<clipPath id="clip1_23_378">
<rect width="51" height="49" fill="white" transform="translate(0.494995 0.97998)"/>
</clipPath>
</defs>
</svg>
